<?xml version="1.0" encoding="UTF-8"?>
<svg id="Layer_1" data-name="Layer 1" xmlns="http://www.w3.org/2000/svg" xmlns:xlink="http://www.w3.org/1999/xlink" viewBox="0 0 1898.46 1618.17">
  <defs>
    <style>
      .cls-1 {
        fill: url(#Sfumatura_senza_nome_2);
      }

      .cls-1, .cls-2, .cls-3, .cls-4, .cls-5 {
        stroke-width: 0px;
      }

      .cls-2 {
        fill: url(#Sfumatura_senza_nome);
      }

      .cls-3 {
        fill: url(#Sfumatura_senza_nome_3);
      }

      .cls-4 {
        fill: url(#Sfumatura_senza_nome_4);
      }

      .cls-5 {
        fill: #f9d900;
      }
    </style>
    <linearGradient id="Sfumatura_senza_nome" data-name="Sfumatura senza nome" x1="1035.65" y1="3999.64" x2="1613.2" y2="3999.64" gradientTransform="translate(0 4968.87) scale(1 -1)" gradientUnits="userSpaceOnUse">
      <stop offset="0" stop-color="#eb5d8b"/>
      <stop offset="1" stop-color="#ec6724"/>
    </linearGradient>
    <linearGradient id="Sfumatura_senza_nome_2" data-name="Sfumatura senza nome 2" x1="342.66" y1="3999.62" x2="920.22" y2="3999.62" gradientTransform="translate(0 4968.87) scale(1 -1)" gradientUnits="userSpaceOnUse">
      <stop offset="0" stop-color="#b3d9b9"/>
      <stop offset="1" stop-color="#9cc64f"/>
    </linearGradient>
    <linearGradient id="Sfumatura_senza_nome_3" data-name="Sfumatura senza nome 3" x1="1011.4" y1="4598.16" x2="1709.2" y2="4598.16" gradientTransform="translate(0 4968.87) scale(1 -1)" gradientUnits="userSpaceOnUse">
      <stop offset="0" stop-color="#e71b74"/>
      <stop offset="1" stop-color="#49307a"/>
    </linearGradient>
    <linearGradient id="Sfumatura_senza_nome_4" data-name="Sfumatura senza nome 4" x1="248.82" y1="4598.16" x2="946.63" y2="4598.16" gradientTransform="translate(0 4968.87) scale(1 -1)" gradientUnits="userSpaceOnUse">
      <stop offset="0" stop-color="#00a391"/>
      <stop offset="1" stop-color="#8dc6ed"/>
    </linearGradient>
  </defs>
  <path class="cls-2" d="m1077.2,736.05c-51.36,13.06-41.52,63.59-39.4,106.5,2.11,42.9,38.8,112.9,63.93,154.02,25.12,41.12,72.06,113.18,113.93,165.93,41.86,52.74,90.78,60.79,127.28,65.86,36.5,5.05,60.55-26.71,81.59-26.76,21.04-.04,43.06-35.47,67.38-45.64,24.33-10.16,30.14-34.3,41.53-50.06,11.4-15.76,8.61-16.57,31.41-34.56,22.8-17.98,13.42-25.63,25.56-44.25,12.15-18.61,7.84-20.48,19.48-48.46,11.63-27.99-11.69-39.69-4.09-54.7,7.58-15.02-8.65-30.81-4.35-42.48,4.3-11.66,9.1-41.02-56.09-98.7-65.18-57.67-204.07-68.47-248.24-72.33-6.59-.57-14.87-.86-24.39-.86-54.28,0-148.55,9.24-195.55,26.48h.02Z"/>
  <path class="cls-1" d="m658.74,710.43c-44.16,3.86-183.06,14.67-248.24,72.33-65.19,57.67-60.39,87.03-56.09,98.7,4.3,11.67-11.93,27.46-4.35,42.48,7.6,15.02-15.72,26.71-4.09,54.7,11.63,27.98,7.32,29.85,19.47,48.46,12.15,18.62,2.76,26.27,25.57,44.25,22.8,17.99,20.01,18.8,31.41,34.56,11.39,15.76,17.2,39.9,41.53,50.06,24.32,10.17,46.35,45.59,67.39,45.64,21.04.05,45.09,31.81,81.59,26.76,36.51-5.07,85.42-13.12,127.28-65.86,41.87-52.75,88.81-124.81,113.93-165.93,25.13-41.12,61.82-111.12,63.94-154.02,2.11-42.91,11.96-93.44-39.4-106.5-47-17.24-141.27-26.48-195.54-26.48-9.52,0-17.8.28-24.39.86h0Z"/>
  <path class="cls-3" d="m1430.3,95.34c-150,98.11-212.01,225.89-287.1,318.4-75.08,92.51-113.67,231.97-129.1,281.05-6.49,21.04-.67,44.34,10.94,46.39,11.6,2.06,58.11-9.56,98.76-12.29,40.66-2.73,123.13-9.97,178.85-29.69,55.71-19.72,187.47-60.51,250.94-74.29,63.47-13.78,89.53-51.44,99.71-68.89,10.18-17.46,1.92-65.96,14.1-88.42,12.19-22.46-21.09-62.49-8.43-89.63,12.66-27.14-19.37-55.24-.81-77.56,18.57-22.32-.9-57.72,17.66-80.04,18.58-22.32.67-44.35,19.24-66.67,18.56-22.31,2.46-56.93,5.63-63.71,3.16-6.78,24.46-17.51-15.38-65.25-13.66-16.36-30.28-24.74-52.26-24.74-42.18,0-104.12,30.84-202.73,95.34h-.02Z"/>
  <path class="cls-4" d="m272.71,24.74c-39.84,47.74-18.54,58.46-15.38,65.25,3.17,6.78-12.93,41.4,5.64,63.71,18.56,22.32.65,44.35,19.23,66.67,18.56,22.32-.91,57.72,17.66,80.04,18.56,22.32-13.48,50.43-.81,77.56,12.66,27.13-20.61,67.17-8.43,89.63s3.91,70.96,14.1,88.42c10.18,17.45,36.24,55.12,99.71,68.89,63.47,13.78,195.23,54.58,250.95,74.29,55.71,19.72,138.19,26.96,178.85,29.69,40.66,2.73,87.16,14.35,98.76,12.29,11.61-2.06,17.43-25.35,10.94-46.39-15.43-49.08-54.03-188.54-129.1-281.05-75.09-92.51-137.09-220.29-287.1-318.4C429.12,30.85,367.18,0,325,0c-21.99,0-38.61,8.38-52.26,24.74h-.03Z"/>
  <path class="cls-5" d="m1124.91,1114.52l3.35-42.97-52.09-152.67h28.89v24.64h14.09v-64.46h-14.09v24.64h-34.11l-33.75-98.92c3.63-8.8,5.67-18.33,5.67-28.55,0-34.6-23.05-63-53.42-69.23-1.92-22.08,2.37-45.04,5.28-66.77,3.59-26.85,8.16-53.69,10.65-80.68.86-9.24,3.02-44.72-22.47-47.91-27.02-3.38-31.22,38.67-30.37,47.91,2.49,26.99,7.05,53.83,10.65,80.68,1.74,13.01,3.98,26.46,5.08,39.89v26.2c-32.07,4.69-56.88,34-56.88,69.91,0,14.42,3.99,27.69,10.79,38.87l-30.21,88.6h-35.43v-24.64h-14.17v64.46h14.17v-24.64h30.3l-52.18,152.67,3.36,42.97-19.39,93.08,43.59-82.39,31.37-31.61,87.89-242.43,87.98,242.43,31.27,31.61,43.57,82.39-19.39-93.08h0Zm-146.72-289.2c-25.15,0-45.54-21.88-45.54-48.99s20.39-48.89,45.54-48.89,45.45,21.85,45.45,48.89-20.37,48.99-45.45,48.99Z"/>
</svg>