<?xml version="1.0" encoding="UTF-8"?><svg id="Livello_1" xmlns="http://www.w3.org/2000/svg" width="190mm" height="25mm" viewBox="0 0 538.58 70.87"><defs><style>.cls-1{fill:#029e4d;}.cls-2{fill:#677330;}.cls-3,.cls-4{fill:#fff;}.cls-5{fill:#feeb1a;}.cls-6{fill:#657341;}.cls-7{fill:#677f56;}.cls-8{fill:#6b3e34;}.cls-9{fill:#9f865f;}.cls-10{fill:#871813;}.cls-11{fill:#876442;}.cls-12{fill:#9c7c60;}.cls-13{fill:#911917;}.cls-14{fill:#ad191b;}.cls-15,.cls-16{fill:#b52020;}.cls-17{fill:#bca26c;}.cls-18,.cls-19{fill:#bebdbe;}.cls-20{fill:#ac9868;}.cls-21{fill:#e1dad9;}.cls-22{fill:#e40f2c;}.cls-23{fill:#253021;}.cls-24{fill:#0f1a16;}.cls-25{fill:#364131;}.cls-26{fill:#1a4291;}.cls-27{fill:#a51f1a;}.cls-28{fill:#717f40;}.cls-29{fill:#876d54;}.cls-30{fill:#89814d;}.cls-31{fill:#89715c;}.cls-32{fill:#6d5743;}.cls-33{fill:#595a1e;}.cls-34{fill:#2d3e1f;}.cls-35{fill:#47603a;}.cls-36{fill:#2e1f15;}.cls-37{fill:#585857;}.cls-38{fill:#3c4b23;}.cls-39{fill:#4a2e19;}.cls-40{fill:#613524;}.cls-41{fill:#5d674b;}.cls-42{fill:#49562f;}.cls-43{fill:#781613;}.cls-44{fill:#51654b;}.cls-45{fill:#51613a;}.cls-46{fill:none;stroke:#919292;stroke-miterlimit:10;stroke-width:.36px;}.cls-19,.cls-47,.cls-16,.cls-4{fill-rule:evenodd;}.cls-47{fill:#bfb6b2;}</style></defs><rect class="cls-3" x="152.46" y="20.5" width="42.95" height="29.88"/><rect class="cls-26" x="153.29" y="21.31" width="41.3" height="28.2"/><path class="cls-5" d="m173.06,27.46l.87-.65.87.65-.33-1.05.89-.65h-1.09l-.33-1.07-.33,1.07h-1.09s.88.65.88.65l-.33,1.05Zm-4.51,1.24l.87-.65.87.65-.33-1.05.89-.65h-1.09l-.33-1.07-.33,1.07h-1.09s.89.65.89.65l-.33,1.05Zm-2.43.61l-.33,1.07h-1.09s.89.65.89.65l-.33,1.05.87-.65.87.65-.33-1.05.88-.65h-1.09l-.33-1.07Zm-1.21,6.73l.87.65-.33-1.05.89-.65h-1.09l-.33-1.07-.33,1.07h-1.09s.89.65.89.65l-.33,1.05.87-.65Zm1.54,3.57l-.33-1.07-.33,1.07h-1.09s.89.65.89.65l-.33,1.05.87-.65.87.65-.33-1.05.88-.65h-1.09Zm3.31,3.39l-.33-1.07-.33,1.07h-1.09s.89.65.89.65l-.33,1.05.87-.65.87.65-.33-1.05.88-.65h-1.09Zm4.5,1.23l-.33-1.07-.33,1.07h-1.09s.88.65.88.65l-.33,1.05.87-.65.87.65-.33-1.05.89-.65h-1.09Zm4.51-1.23l-.33-1.07-.34,1.07h-1.09s.88.65.88.65l-.33,1.05.87-.65.87.65-.33-1.05.89-.65h-1.09Zm3.31-3.39l-.34-1.07-.33,1.07h-1.09s.89.65.89.65l-.33,1.05.87-.65.87.65-.33-1.05.89-.65h-1.09Zm2.29-4.64h-1.09l-.33-1.07-.33,1.07h-1.09s.89.65.89.65l-.33,1.05.87-.65.87.65-.33-1.05.89-.65Zm-3.49-2.91l.87-.65.87.65-.33-1.05.89-.65h-1.09l-.34-1.07-.33,1.07h-1.09s.89.65.89.65l-.33,1.05Zm-2.42-6.14l-.33,1.07h-1.09s.88.65.88.65l-.33,1.05.87-.65.87.65-.33-1.05.89-.65h-1.09l-.33-1.07Z"/><path class="cls-26" d="m205.02,29.68l1.33.43c-.2.76-.54,1.32-1.02,1.69-.48.37-1.08.55-1.8.55-.9,0-1.64-.32-2.22-.95-.58-.63-.87-1.49-.87-2.59,0-1.16.29-2.06.88-2.7.58-.64,1.35-.96,2.3-.96.83,0,1.51.25,2.02.75.31.3.54.72.7,1.28l-1.36.33c-.08-.36-.25-.65-.5-.85-.26-.21-.56-.31-.93-.31-.5,0-.91.18-1.23.56-.31.37-.47.97-.47,1.8,0,.88.15,1.5.46,1.88.31.37.71.56,1.2.56.36,0,.68-.12.94-.36.26-.24.45-.61.57-1.12"/><path class="cls-26" d="m207.22,29.64c0-.44.11-.87.32-1.29.21-.41.51-.73.91-.95.39-.22.82-.33,1.31-.33.74,0,1.35.25,1.83.74.48.49.71,1.12.71,1.88s-.24,1.39-.72,1.89c-.48.5-1.08.75-1.81.75-.45,0-.88-.1-1.29-.31-.41-.21-.72-.51-.93-.92-.21-.4-.32-.89-.32-1.47m1.33.07c0,.5.12.88.35,1.15.23.27.52.4.85.4s.62-.13.86-.4c.23-.26.35-.65.35-1.16s-.11-.87-.35-1.14c-.23-.27-.51-.4-.86-.4s-.62.13-.85.4c-.23.26-.35.65-.35,1.15"/><path class="cls-26" d="m212.77,27.2h.72v-.38c0-.42.04-.74.13-.95.09-.21.25-.38.49-.51.24-.13.54-.2.9-.2s.73.06,1.09.17l-.18.93c-.21-.05-.41-.08-.6-.08s-.32.05-.4.14c-.08.09-.12.26-.12.52v.36h.97v1.05h-.97v3.99h-1.3v-3.99h-.72v-1.05Zm3.65-1.92h1.3v1.23h-1.3v-1.23Zm0,1.92h1.3v5.03h-1.3v-5.03Z"/><path class="cls-26" d="m223.57,32.23h-1.3v-2.57c0-.54-.03-.9-.08-1.06-.05-.16-.15-.28-.27-.37-.12-.09-.28-.13-.45-.13-.22,0-.43.06-.61.19-.18.13-.3.29-.37.5-.07.21-.1.59-.1,1.16v2.28h-1.3v-5.03h1.21v.74c.43-.57.97-.85,1.62-.85.29,0,.55.05.79.16.24.11.42.24.54.4.12.17.21.35.26.56.05.21.07.51.07.9v3.13Z"/><path class="cls-26" d="m225.87,28.73l-1.18-.22c.13-.49.36-.85.69-1.08.32-.23.8-.35,1.44-.35.58,0,1.01.07,1.3.21.28.14.48.32.6.54.12.22.17.61.17,1.19v1.56c-.01.44,0,.77.05.98.04.21.12.44.23.68h-1.29c-.03-.09-.08-.22-.12-.39-.02-.08-.04-.13-.05-.16-.22.22-.46.39-.71.5-.25.11-.52.17-.81.17-.51,0-.91-.14-1.2-.42-.29-.28-.44-.64-.44-1.07,0-.28.07-.54.2-.76.13-.22.32-.39.56-.51.24-.12.58-.22,1.04-.31.61-.12,1.03-.23,1.26-.33v-.13c0-.26-.06-.44-.19-.55-.12-.11-.36-.16-.7-.16-.23,0-.41.05-.54.14-.13.09-.23.26-.32.49m1.74,1.08c-.17.06-.43.12-.79.2-.36.08-.6.16-.71.23-.17.12-.26.28-.26.47s.07.35.2.48c.14.14.31.2.52.2.23,0,.46-.08.67-.24.16-.12.26-.27.31-.44.03-.11.05-.33.05-.65v-.27Z"/><path class="cls-26" d="m234.64,32.23h-1.3v-2.57c0-.54-.03-.9-.08-1.06-.06-.16-.15-.28-.27-.37-.13-.09-.28-.13-.45-.13-.23,0-.43.06-.61.19-.18.13-.3.29-.37.5-.07.21-.1.59-.1,1.16v2.28h-1.3v-5.03h1.21v.74c.43-.57.97-.85,1.62-.85.29,0,.55.05.79.16.24.11.42.24.54.4.12.17.21.35.26.56.05.21.07.51.07.9v3.13Z"/><path class="cls-26" d="m235.44,32.23v-1.04l1.84-2.17c.3-.35.53-.61.67-.75-.15,0-.35.01-.6.02h-1.74s0-1.1,0-1.1h4.07v.94l-1.88,2.22-.66.74c.36-.02.58-.03.67-.03h2.01v1.17h-4.39Z"/><path class="cls-26" d="m240.7,25.28h1.3v1.23h-1.3v-1.23Zm0,1.92h1.3v5.03h-1.3v-5.03Z"/><path class="cls-26" d="m244.31,28.73l-1.18-.22c.13-.49.36-.85.68-1.08.32-.23.81-.35,1.44-.35.58,0,1.01.07,1.3.21.28.14.48.32.6.54.12.22.17.61.17,1.19v1.56c-.01.44,0,.77.05.98.04.21.12.44.23.68h-1.29c-.04-.09-.08-.22-.13-.39-.02-.08-.04-.13-.05-.16-.22.22-.46.39-.71.5-.25.11-.52.17-.81.17-.51,0-.9-.14-1.2-.42-.29-.28-.44-.64-.44-1.07,0-.28.07-.54.2-.76.13-.22.32-.39.56-.51.24-.12.58-.22,1.03-.31.61-.12,1.03-.23,1.26-.33v-.13c0-.26-.06-.44-.19-.55-.12-.11-.36-.16-.7-.16-.23,0-.41.05-.54.14-.13.09-.23.26-.32.49m1.74,1.08c-.17.06-.43.12-.79.2-.36.08-.6.16-.71.23-.17.12-.26.28-.26.47s.07.35.2.48c.14.14.31.2.52.2.23,0,.46-.08.67-.24.16-.12.26-.27.31-.44.03-.11.05-.33.05-.65v-.27Z"/><path class="cls-26" d="m250.86,27.2v1.06h-.89v2.03c0,.41,0,.65.02.72s.05.12.11.17c.06.04.14.07.22.07.12,0,.29-.04.52-.13l.11,1.03c-.3.13-.64.2-1.03.2-.23,0-.45-.04-.64-.12-.19-.08-.33-.19-.41-.31-.09-.13-.15-.3-.18-.52-.03-.16-.04-.47-.04-.94v-2.2h-.6v-1.06h.6v-1l1.31-.78v1.78h.89Z"/><path class="cls-26" d="m251.46,29.64c0-.44.11-.87.32-1.29.21-.41.51-.73.9-.95.39-.22.82-.33,1.31-.33.74,0,1.35.25,1.83.74.48.49.71,1.12.71,1.88s-.24,1.39-.72,1.89c-.48.5-1.08.75-1.81.75-.45,0-.88-.1-1.29-.31-.41-.21-.72-.51-.93-.92-.21-.4-.32-.89-.32-1.47m1.33.07c0,.5.12.88.35,1.15.23.27.52.4.85.4s.62-.13.86-.4c.23-.26.35-.65.35-1.16s-.11-.87-.35-1.14c-.23-.27-.51-.4-.86-.4s-.62.13-.85.4c-.23.26-.35.65-.35,1.15"/><path class="cls-26" d="m205.18,43.88h-1.21v-.74c-.2.29-.44.5-.71.64-.27.14-.55.21-.83.21-.57,0-1.05-.23-1.45-.7-.4-.47-.6-1.12-.6-1.95s.2-1.5.59-1.95c.39-.44.89-.67,1.49-.67.55,0,1.02.23,1.43.7v-2.5h1.3v6.95Zm-3.47-2.63c0,.54.07.93.22,1.17.21.35.5.52.88.52.3,0,.55-.13.76-.39.21-.26.32-.65.32-1.17,0-.58-.1-.99-.31-1.25-.2-.26-.46-.38-.78-.38s-.57.12-.77.38c-.21.25-.31.63-.31,1.13"/><path class="cls-26" d="m207.44,40.38l-1.18-.22c.13-.49.36-.85.68-1.08.33-.23.81-.35,1.45-.35.58,0,1.01.07,1.3.21.28.14.48.32.6.54.12.21.17.61.17,1.19v1.56c-.01.44,0,.77.05.98.04.21.12.44.23.68h-1.29c-.04-.09-.08-.22-.13-.39-.02-.08-.04-.13-.04-.16-.22.22-.46.39-.71.5-.25.11-.52.17-.81.17-.51,0-.91-.14-1.2-.42-.29-.28-.44-.64-.44-1.07,0-.28.07-.54.2-.76.13-.22.32-.39.56-.51.24-.12.58-.22,1.04-.31.61-.12,1.03-.23,1.26-.33v-.13c0-.26-.06-.44-.19-.55-.12-.11-.36-.16-.7-.16-.23,0-.41.05-.54.14s-.23.26-.32.49m1.74,1.08c-.17.06-.43.12-.79.2-.36.08-.6.16-.71.23-.17.12-.26.28-.26.47s.07.35.2.48c.14.14.31.2.52.2.23,0,.46-.08.67-.24.16-.12.26-.27.31-.44.03-.11.05-.33.05-.65v-.27Z"/><rect class="cls-26" x="211.74" y="36.93" width="1.3" height="6.95"/><rect class="cls-26" x="214.37" y="36.93" width="1.3" height="6.95"/><polygon class="cls-26" points="217 39.4 216.75 38.11 216.75 36.93 218.17 36.93 218.17 38.11 217.95 39.4 217 39.4"/><path class="cls-26" d="m219.26,36.93h1.37v3.76c0,.6.02.98.05,1.16.06.29.2.51.42.69.22.17.52.26.9.26s.68-.08.88-.24c.2-.16.32-.36.36-.6s.06-.63.06-1.18v-3.84h1.37v3.65c0,.83-.04,1.42-.11,1.77-.07.34-.21.64-.41.87-.2.24-.46.43-.8.57-.33.14-.77.21-1.31.21-.65,0-1.14-.08-1.47-.23-.34-.15-.6-.35-.8-.6-.19-.25-.32-.5-.38-.77-.09-.4-.13-.99-.13-1.76v-3.71Z"/><path class="cls-26" d="m230.58,43.88h-1.3v-2.57c0-.54-.03-.9-.08-1.06-.06-.16-.15-.28-.27-.37-.13-.09-.28-.13-.45-.13-.23,0-.43.07-.61.19-.18.13-.3.29-.37.5-.07.21-.1.59-.1,1.16v2.28h-1.3v-5.03h1.21v.74c.43-.57.97-.85,1.62-.85.29,0,.55.05.79.16.24.11.42.24.54.4.12.17.21.35.26.56.05.21.07.51.07.89v3.13Z"/><path class="cls-26" d="m231.9,36.93h1.3v1.23h-1.3v-1.23Zm0,1.91h1.3v5.03h-1.3v-5.03Z"/><path class="cls-26" d="m234.23,41.29c0-.44.11-.87.32-1.29.21-.41.51-.73.9-.95.39-.22.83-.33,1.31-.33.74,0,1.35.25,1.83.74.48.49.71,1.12.71,1.88s-.24,1.39-.72,1.89c-.48.5-1.08.75-1.81.75-.45,0-.88-.1-1.29-.31-.41-.21-.72-.51-.93-.92-.21-.4-.32-.89-.32-1.47m1.33.07c0,.5.11.88.35,1.15.23.27.52.4.86.4s.62-.13.85-.4c.23-.26.34-.65.34-1.16s-.11-.87-.34-1.14c-.23-.27-.51-.4-.85-.4s-.63.13-.86.4c-.23.27-.35.65-.35,1.15"/><path class="cls-26" d="m244.8,43.88h-1.3v-2.57c0-.54-.03-.9-.08-1.06-.06-.16-.15-.28-.27-.37-.13-.09-.28-.13-.45-.13-.23,0-.43.07-.61.19-.18.13-.3.29-.37.5-.07.21-.1.59-.1,1.16v2.28h-1.3v-5.03h1.21v.74c.43-.57.97-.85,1.62-.85.29,0,.55.05.79.16.24.11.42.24.54.4.12.17.21.35.26.56.05.21.07.51.07.89v3.13Z"/><path class="cls-26" d="m248.96,42.28l1.3.22c-.17.49-.43.86-.79,1.11-.36.25-.81.38-1.35.38-.85,0-1.49-.29-1.9-.86-.32-.46-.49-1.04-.49-1.74,0-.83.21-1.49.64-1.96.43-.47.96-.71,1.62-.71.73,0,1.31.25,1.73.74.42.49.63,1.25.61,2.27h-3.26c0,.4.11.7.32.92.2.22.45.33.75.33.2,0,.38-.06.51-.17.14-.11.24-.3.32-.55m.07-1.35c0-.39-.11-.68-.29-.88-.18-.2-.41-.3-.67-.3-.29,0-.52.11-.7.32-.19.21-.28.5-.27.86h1.94Z"/><path class="cls-26" d="m256.87,42.28l1.3.22c-.17.49-.43.86-.79,1.11-.36.25-.81.38-1.35.38-.85,0-1.49-.29-1.9-.86-.32-.46-.49-1.04-.49-1.74,0-.83.21-1.49.64-1.96.43-.47.96-.71,1.62-.71.73,0,1.31.25,1.73.74.42.49.63,1.25.61,2.27h-3.26c0,.4.11.7.32.92.2.22.45.33.75.33.2,0,.38-.06.51-.17.14-.11.24-.3.32-.55m.07-1.35c0-.39-.11-.68-.29-.88-.18-.2-.41-.3-.67-.3-.29,0-.52.11-.71.32-.18.21-.27.5-.27.86h1.94Z"/><path class="cls-26" d="m262.53,43.88v-.75c-.18.27-.42.48-.71.64-.29.15-.6.23-.92.23s-.63-.07-.89-.22c-.26-.15-.45-.36-.57-.63-.12-.27-.18-.64-.18-1.11v-3.18h1.3v2.31c0,.71.02,1.14.07,1.3.05.16.14.29.26.38.13.09.29.14.48.14.22,0,.42-.06.6-.19.18-.12.3-.28.36-.46.06-.19.1-.64.1-1.36v-2.12h1.3v5.03h-1.21Z"/><path class="cls-26" d="m266.33,43.88h-1.3v-5.03h1.21v.72c.21-.34.39-.56.56-.67.16-.11.35-.16.56-.16.3,0,.58.08.86.25l-.4,1.16c-.22-.14-.42-.22-.61-.22s-.34.05-.46.15c-.13.1-.23.29-.3.56-.07.27-.11.83-.11,1.69v1.55Z"/><path class="cls-26" d="m268.48,41.29c0-.44.11-.87.32-1.29.21-.41.51-.73.9-.95.39-.22.83-.33,1.31-.33.74,0,1.35.25,1.83.74.48.49.71,1.12.71,1.88s-.24,1.39-.72,1.89c-.48.5-1.08.75-1.81.75-.45,0-.88-.1-1.29-.31-.41-.21-.72-.51-.93-.92-.21-.4-.32-.89-.32-1.47m1.33.07c0,.5.12.88.35,1.15.23.27.52.4.86.4s.62-.13.85-.4c.23-.26.34-.65.34-1.16s-.11-.87-.34-1.14c-.23-.27-.51-.4-.85-.4s-.63.13-.86.4c-.23.27-.35.65-.35,1.15"/><path class="cls-26" d="m274.53,38.85h1.21v.74c.16-.25.37-.46.64-.62.27-.16.57-.24.89-.24.57,0,1.05.23,1.45.69.4.46.6,1.1.6,1.91s-.2,1.49-.6,1.96c-.4.47-.89.7-1.46.7-.27,0-.52-.05-.74-.17-.22-.11-.45-.3-.7-.57v2.54h-1.3v-6.95Zm1.29,2.43c0,.57.11.98.33,1.25.22.27.49.4.8.4s.55-.12.76-.37c.2-.25.3-.65.3-1.22,0-.53-.1-.92-.31-1.17-.21-.26-.46-.38-.77-.38s-.58.12-.79.38c-.21.25-.31.62-.31,1.12"/><path class="cls-26" d="m283.21,42.28l1.3.22c-.17.49-.43.86-.79,1.11-.36.25-.81.38-1.35.38-.85,0-1.49-.29-1.9-.86-.32-.46-.49-1.04-.49-1.74,0-.83.21-1.49.64-1.96.43-.47.96-.71,1.62-.71.73,0,1.31.25,1.73.74.42.49.63,1.25.61,2.27h-3.26c0,.4.11.7.32.92.2.22.45.33.75.33.2,0,.38-.06.51-.17.14-.11.24-.3.32-.55m.07-1.35c0-.39-.11-.68-.29-.88-.18-.2-.41-.3-.67-.3-.28,0-.52.11-.71.32-.18.21-.27.5-.27.86h1.94Z"/><path class="cls-26" d="m286.61,40.38l-1.18-.22c.13-.49.36-.85.68-1.08.32-.23.81-.35,1.44-.35.58,0,1.01.07,1.3.21.28.14.48.32.6.54.12.21.17.61.17,1.19v1.56c-.01.44,0,.77.05.98.04.21.12.44.23.68h-1.29c-.03-.09-.08-.22-.13-.39-.02-.08-.04-.13-.05-.16-.22.22-.46.39-.71.5-.25.11-.52.17-.81.17-.51,0-.91-.14-1.2-.42-.29-.28-.44-.64-.44-1.07,0-.28.07-.54.2-.76.13-.22.32-.39.56-.51.24-.12.58-.22,1.03-.31.61-.12,1.03-.23,1.26-.33v-.13c0-.26-.06-.44-.19-.55-.12-.11-.36-.16-.7-.16-.23,0-.41.05-.54.14-.13.09-.23.26-.32.49m1.74,1.08c-.17.06-.43.12-.79.2-.36.08-.6.16-.71.23-.17.12-.26.28-.26.47s.07.35.2.48c.14.14.31.2.52.2.23,0,.46-.08.67-.24.16-.12.26-.27.31-.44.03-.11.05-.33.05-.65v-.27Z"/><path class="cls-22" d="m88.21,48.9c-.37,0-.67-.3-.67-.67v-15.02c0-.09-.05-.17-.12-.21l-13.23-7.64c-.21-.12-.33-.34-.33-.58s.12-.46.33-.58l6.25-3.61c.35-.2.74-.31,1.15-.31s.8.11,1.15.31l12.76,7.37c.21.12.34.34.34.58v14.74c0,.82-.44,1.58-1.15,1.99l-6.13,3.54c-.1.06-.22.09-.33.09"/><path class="cls-3" d="m81.58,20.5c.36,0,.72.09,1.04.28l12.77,7.37c.14.08.23.23.23.4v14.74c0,.75-.4,1.43-1.04,1.8l-6.14,3.54c-.07.04-.15.06-.23.06-.24,0-.46-.19-.46-.46v-15.02c0-.16-.09-.31-.23-.4l-13.23-7.64c-.31-.18-.31-.62,0-.79l6.25-3.61c.32-.18.68-.28,1.04-.28m0-.42c-.44,0-.87.12-1.25.34l-6.25,3.61c-.27.16-.44.44-.44.76s.17.6.44.76l13.23,7.64.02,15.05c0,.49.39.88.88.88.15,0,.3-.04.44-.12l6.14-3.54c.77-.45,1.25-1.28,1.25-2.17v-14.74c0-.31-.17-.61-.44-.76l-12.76-7.37c-.38-.22-.81-.34-1.25-.34"/><path class="cls-1" d="m78.12,50.58c-.42,0-.76-.34-.76-.76v-10.43c0-.12-.06-.23-.17-.29l-9.18-5.3c-.24-.14-.38-.38-.38-.66s.14-.52.38-.66l5.6-3.23c.28-.16.59-.24.91-.24s.63.08.91.24l9.12,5.27c.24.14.38.39.38.66v10.54c0,.65-.35,1.25-.91,1.57l-5.53,3.19c-.12.07-.25.1-.38.1"/><path class="cls-3" d="m74.52,29.22c.28,0,.55.07.8.21l9.12,5.27c.17.1.27.28.27.47v10.53c0,.57-.3,1.1-.8,1.39l-5.53,3.19c-.09.05-.18.07-.27.07-.28,0-.55-.23-.55-.55v-10.43c0-.19-.1-.38-.27-.47l-9.18-5.3c-.36-.21-.36-.74,0-.95l5.6-3.24c.25-.14.52-.21.8-.21m0-.42c-.36,0-.71.09-1.01.27l-5.6,3.24c-.3.18-.49.49-.49.84s.18.66.49.84l9.18,5.3s.06.06.06.11v10.43c0,.54.44.97.97.97.17,0,.34-.05.48-.13l5.53-3.19c.62-.36,1.01-1.03,1.01-1.76v-10.53c0-.35-.19-.67-.49-.84l-9.12-5.27c-.31-.18-.66-.27-1.01-.27"/><path class="cls-26" d="m74.14,48.81c-.1,0-.21-.03-.3-.08l-6.12-3.53c-.19-.11-.3-.3-.3-.51s.11-.41.3-.51l6.12-3.53c.09-.05.19-.08.3-.08.33,0,.59.27.59.59v7.06c0,.16-.06.31-.18.43-.11.11-.26.17-.41.17"/><path class="cls-3" d="m74.14,40.76c.2,0,.38.16.38.38v7.06c0,.22-.18.38-.38.38-.06,0-.13-.02-.19-.05l-6.12-3.53c-.26-.15-.26-.52,0-.66l6.12-3.53c.06-.04.13-.05.19-.05m0-.42c-.14,0-.28.04-.4.11l-6.12,3.53c-.25.14-.4.4-.4.7s.15.55.4.7l6.12,3.53c.12.07.26.11.4.11.44,0,.81-.36.81-.81v-7.06c0-.44-.36-.81-.81-.81"/><path class="cls-26" d="m71.29,49.82l-7.83-4.52c-.23-.14-.38-.38-.38-.65s.14-.51.38-.65l7.83-4.52c.16-.09.13-.25.12-.3-.01-.04-.07-.2-.25-.2H17.25v11.32h53.91c.19,0,.24-.15.25-.2.01-.05.04-.2-.12-.3"/><path class="cls-26" d="m24.77,28.8h-5.21v.99h2.05v5.29h1.11v-5.29h2.05v-.99Zm-7.31,6.28h1.1v-6.28h-1.1v6.28Zm8.81-8.11c1.79,0,3.23-1.45,3.23-3.23s-1.45-3.24-3.23-3.24-3.23,1.45-3.23,3.24,1.45,3.23,3.23,3.23m0-5.37c1.2,0,2.17.97,2.17,2.16s-.97,2.17-2.17,2.17-2.16-.97-2.16-2.17.97-2.16,2.16-2.16m32.63,5.3h4.5v-.99h-3.4v-1.7h2.29s.38,0,.38,0v-.99h-.38s-2.29,0-2.29,0v-1.61h3.4v-.99h-4.5v2.6h-.53v.99h.53v2.69Zm-38.64.07c.88,0,1.68-.35,2.27-.93l-.74-.74c-.39.39-.93.63-1.52.63-1.2,0-2.16-.97-2.16-2.17s.97-2.16,2.16-2.16c.6,0,1.13.24,1.52.63l.77-.77c-.59-.59-1.4-.95-2.29-.95-1.79,0-3.23,1.45-3.23,3.24s1.45,3.23,3.23,3.23m32.75-4.55l3.21,4.48h1.11v-6.28h-1.11v4.48l-3.21-4.48h-1.1v6.28h1.1v-4.48Zm-9.83-1.8h-1.1v6.28h1.1v-6.28Zm-7.7,6.28v-.99h-3.4v-1.7h2.29s.38,0,.38,0v-.99h-.38s-2.29,0-2.29,0v-1.61h3.4v-.99h-4.5v2.6h-.54v.99h.54v2.69h4.5Zm-8.47,1.9l-2.45,6.28h1.13l.54-1.41h2.82l.54,1.41h1.13l-2.45-6.28h-1.26Zm-.4,3.89l1.03-2.68,1.03,2.68h-2.06Zm24.18-8.95c0-1.79-1.45-3.24-3.23-3.24s-3.23,1.45-3.23,3.24,1.45,3.23,3.23,3.23,3.23-1.45,3.23-3.23m-3.23,2.19c-1.19,0-2.16-.97-2.16-2.17s.97-2.16,2.16-2.16,2.16.97,2.16,2.16-.97,2.17-2.16,2.17m-14.69,2.88h-1.1v6.28h4.33v-.99h-3.22v-5.29Zm8.85,0l-2.45,6.28h1.13l.54-1.41h2.82l.54,1.41h1.13l-2.45-6.28h-1.26Zm-.4,3.89l1.03-2.68,1.03,2.68h-2.06Zm-.37-7.57c0-.35-.08-.64-.25-.9-.17-.25-.37-.44-.61-.56-.24-.13-.51-.24-.79-.36-.29-.11-.55-.2-.79-.27-.24-.07-.45-.17-.61-.31-.16-.13-.25-.29-.25-.48,0-.21.09-.37.26-.48.17-.11.41-.17.72-.17.62,0,1.08.19,1.36.57l.75-.77c-.2-.27-.48-.48-.84-.63-.36-.15-.76-.22-1.21-.22-.65,0-1.17.16-1.55.48-.38.32-.57.75-.57,1.31,0,.41.11.75.34,1.03.23.27.5.47.83.6.32.13.65.24.97.33.32.1.6.21.83.35.23.14.34.31.34.53,0,.23-.11.41-.32.55-.21.14-.5.21-.86.21-.6,0-1.11-.2-1.54-.59l-.76.77c.56.58,1.31.87,2.24.87.71,0,1.26-.17,1.68-.5s.62-.78.62-1.35m-3.82,9.96h1.1v-6.28h-1.1v6.28Zm22.76-4.73c0-.42-.15-.78-.45-1.08-.3-.3-.66-.45-1.08-.45s-.78.15-1.08.45c-.3.3-.45.66-.45,1.08v.06h.79v-.06c0-.2.07-.38.21-.52.15-.14.32-.22.52-.22s.38.07.52.22c.15.14.22.32.22.52s-.07.38-.22.52l-2.05,2.01v.59h3.05v-.79h-1.72l1.28-1.26c.29-.29.44-.66.44-1.08m.9-1.39v.79h1.71l-1.36,3.73h.85l1.45-3.99v-.53s-2.65,0-2.65,0Zm-9.1,1.48l.7.36.02-.03v2.71h.79v-4.52h-.65l-.86,1.48Zm2.98,1.17h1.72v-.79h-1.72v.79Zm-3.73-1.26c0-.42-.15-.78-.45-1.08-.3-.3-.66-.45-1.08-.45s-.79.15-1.08.45c-.3.3-.45.66-.45,1.08v.06h.79v-.06c0-.2.07-.38.22-.52.15-.14.31-.22.52-.22s.37.07.52.22.22.32.22.52-.07.38-.21.52l-2.05,2.01v.59h3.05v-.79h-1.72l1.28-1.26c.29-.29.44-.66.44-1.08"/><path class="cls-3" d="m21.8,46.28c.6,0,.92-.27.92-.86v-3.03h.73v3.02c0,1.07-.58,1.51-1.64,1.51s-1.63-.43-1.63-1.51v-3.02h.73v3.03c0,.61.31.86.9.86"/><polygon class="cls-3" points="24.43 42.39 25.69 42.39 26.68 45.86 27.68 42.39 28.94 42.39 28.94 46.84 28.21 46.84 28.21 43.19 28.11 43.19 27.06 46.66 26.31 46.66 25.25 43.19 25.16 43.19 25.16 46.84 24.43 46.84 24.43 42.39"/><path class="cls-3" d="m31.64,42.39c.88,0,1.36.33,1.36,1.16,0,.54-.17.81-.53,1,.38.15.64.42.64,1.03,0,.91-.55,1.26-1.42,1.26h-1.74v-4.45h1.69Zm-.97.62v1.27h.96c.44,0,.64-.22.64-.66s-.22-.62-.66-.62h-.93Zm0,1.88v1.32h.98c.45,0,.71-.14.71-.68s-.38-.64-.73-.64h-.97Z"/><path class="cls-3" d="m34.65,45.25v1.59h-.72v-4.45h1.69c.98,0,1.51.43,1.51,1.42,0,.63-.25,1.06-.73,1.29l.73,1.75h-.79l-.64-1.59h-1.05Zm.97-2.24h-.97v1.62h.98c.55,0,.76-.36.76-.82,0-.51-.25-.8-.77-.8"/><rect class="cls-3" x="37.94" y="42.39" width=".72" height="4.45"/><path class="cls-3" d="m40.4,42.39h1.44l1.11,4.45h-.73l-.24-.95h-1.71l-.24.95h-.72l1.1-4.45Zm0,2.86h1.42l-.55-2.25h-.33l-.55,2.25Z"/><path class="cls-21" d="m366.2,33.67c0,4.2-3.32,7.6-7.42,7.6s-7.42-3.4-7.42-7.6,3.32-7.6,7.42-7.6,7.42,3.4,7.42,7.6"/><path class="cls-47" d="m368.1,33.16c0-.14-.11-.25-.24-.25h-.69c-.03-.39-.09-.78-.18-1.16l.66-.22c.13-.04.2-.18.16-.32l-.31-.98c-.04-.13-.18-.2-.31-.16l-.66.22c-.15-.36-.33-.71-.52-1.04l.56-.42c.11-.08.13-.24.05-.35l-.59-.83c-.08-.11-.23-.14-.34-.05l-.56.42c-.25-.29-.52-.57-.81-.83l.41-.57c.08-.11.05-.27-.05-.35l-.81-.6c-.11-.08-.26-.06-.34.05l-.41.57c-.33-.2-.67-.38-1.02-.53l.21-.67c.04-.13-.03-.27-.16-.32l-.96-.32c-.13-.04-.27.03-.31.16l-.21.67c-.37-.09-.74-.15-1.13-.18v-.71c0-.14-.11-.25-.24-.25h-1c-.14,0-.24.11-.24.25v.71c-.38.03-.76.1-1.13.18l-.21-.67c-.04-.13-.18-.2-.31-.16l-.96.32c-.13.04-.2.18-.16.32l.21.67c-.35.15-.69.33-1.02.53l-.41-.57c-.08-.11-.23-.14-.34-.05l-.81.6c-.11.08-.13.24-.05.35l.41.57c-.29.26-.56.53-.81.83l-.56-.42c-.11-.08-.26-.06-.34.05l-.59.83c-.08.11-.05.27.05.35l.56.42c-.2.33-.37.68-.52,1.04l-.66-.22c-.13-.04-.27.03-.31.16l-.31.98c-.04.13.03.27.16.32l.66.22c-.08.38-.15.76-.18,1.16h-.69c-.13,0-.24.11-.24.25v1.03c0,.14.11.25.24.25h.69c.03.39.09.78.18,1.15l-.66.22c-.13.04-.2.18-.16.32l.31.98c.04.13.18.2.31.16l.66-.22c.15.36.32.71.52,1.04l-.56.42c-.11.08-.13.24-.05.35l.59.83c.08.11.23.14.34.06l.56-.42c.25.29.52.57.81.83l-.41.57c-.08.11-.05.27.05.35l.81.6c.11.08.26.06.34-.06l.41-.57c.33.2.67.38,1.02.53l-.21.67c-.04.13.03.27.16.32l.96.32c.13.04.27-.03.31-.16l.21-.67c.37.09.74.15,1.13.18v.71c0,.14.11.25.24.25h1c.13,0,.24-.11.24-.25v-.71c.38-.03.76-.1,1.13-.18l.21.67c.04.13.18.2.31.16l.96-.32c.13-.04.2-.18.16-.32l-.21-.67c.35-.15.69-.33,1.02-.53l.41.57c.08.11.23.14.34.06l.81-.6c.11-.08.13-.24.05-.35l-.41-.57c.29-.26.56-.53.81-.83l.56.42c.11.08.26.06.34-.06l.59-.83c.08-.11.05-.27-.05-.35l-.56-.42c.19-.33.37-.68.52-1.04l.66.22c.13.04.26-.03.31-.16l.31-.98c.04-.13-.03-.27-.16-.32l-.66-.22c.08-.38.14-.76.18-1.15h.69c.13,0,.24-.11.24-.25v-1.03Zm-3.49-2.8l-4.33,1.13-.22-3.71-.05-.8c1.98.37,3.65,1.64,4.6,3.38m-7.01-3.38l-.04.68-.23,3.82-4.33-1.13c.95-1.74,2.62-3.01,4.6-3.38m-5.44,6.69c0-.32.02-.64.07-.95l4.08,1.63-2.4,3.9c-1.08-1.21-1.74-2.82-1.74-4.59m6.64,6.8c-1.01,0-1.97-.23-2.83-.65l2.83-3.53,2.83,3.53c-.86.41-1.82.65-2.83.65m4.91-2.22l-2.41-3.9,4.08-1.63c.04.31.07.63.07.95,0,1.77-.66,3.38-1.74,4.59"/><polygon class="cls-4" points="358.8 36.05 355.06 38.83 356.49 34.33 352.76 31.56 357.37 31.56 358.8 27.07 360.22 31.56 364.84 31.56 361.1 34.33 362.53 38.83 358.8 36.05"/><path class="cls-27" d="m358.8,27.38l1.31,4.14.04.13h4.39l-3.44,2.56-.11.08.04.13,1.31,4.14-3.44-2.56-.11-.08-.11.08-3.44,2.56,1.31-4.14.04-.13-.11-.08-3.44-2.56h4.39l.04-.13,1.32-4.14Zm0-.63l-1.5,4.71h-4.83l3.91,2.91-1.49,4.71,3.91-2.91,3.91,2.91-1.49-4.71,3.91-2.91h-4.84l-1.49-4.71Z"/><path class="cls-42" d="m364.23,23.26c-.06-.08-.13-.15-.2-.23-.05-.05-.14-.19-.22-.16-.07.03-.02.17-.1.22-.12.09-.2-.05-.24-.14-.05-.1-.13-.14-.2-.22-.07-.09-.11-.19-.19-.28-.08-.09-.19-.2-.29-.26-.12-.08-.27-.22-.42-.23-.18,0-.07.04-.13.13-.05.08-.11.04-.16,0-.12-.08-.14-.22-.29-.25-.17-.03-.28-.01-.42-.12-.19-.14-.73-.23-.92-.04-.09.09,0,.12,0,.21,0,.11-.11.09-.19.09-.18,0-.34.06-.28.27.02.08.04.17.11.23.07.07.18.06.26.12.17.12-.01.32.05.48.08.21.22.21.42.23.18.02.33.06.51.07.08,0,.18.02.18.13,0,.1-.11.11-.15.19-.1.2.18.16.29.12.09-.03.12-.07.21-.01.09.06.16.17.27.21.12.05.27.02.39-.05.12-.08.37-.13.46.02.12.22-.25.22-.2.41.04.15.44.07.56.07s.2,0,.31-.05c.16-.06.39-.14.54-.23.13-.09.17-.32.19-.46.03-.21-.02-.31-.15-.47"/><path class="cls-2" d="m364.19,23.58c-.09.03-.44.04-.66-.03-.22-.07-.38-.09-.63.01-.25.1-.54.11-.71.11s-.24-.06-.09-.06c.44,0,.86-.2.83-.26-.03-.07-.29-.27-.41-.31-.12-.05-.27-.09-.43-.13-.16-.03-.51-.2-.63-.22-.12-.02-.31-.15-.53-.26-.21-.12-.21-.3-.1-.18.11.11.33.16.43.24.1.08.28.1.16-.04-.12-.14-.25-.45-.25-.45,0,0,.35.39.46.51.11.11.35.23.44.27.09.05.06-.12.02-.25-.03-.14-.18-.28-.03-.23.14.04.32.49.42.53.1.04.27.16.47.29.2.13.12-.13.05-.25-.06-.1-.16-.28-.21-.37-.02-.03-.03-.05-.03-.05,0,0,.01.02.03.05.04.06.11.14.17.09.05-.04.05-.13.05-.22-.07-.07-.14-.13-.21-.18-.12-.08-.26-.22-.42-.23-.18-.01-.07.04-.13.13-.05.08-.11.04-.16,0-.12-.08-.14-.22-.29-.25-.17-.03-.28-.01-.42-.12-.19-.14-.73-.23-.92-.04-.09.09,0,.12,0,.21,0,.11-.11.09-.19.09-.18,0-.34.06-.28.27.02.08.04.17.11.23.08.06.18.06.26.12.17.12-.01.32.05.48.08.21.22.21.42.23.18.01.33.06.51.07.08,0,.18.02.18.12,0,.1-.11.11-.15.2-.09.2.18.16.29.13.09-.03.12-.07.21-.01.09.06.16.17.27.21.12.05.27.02.39-.05.11-.08.37-.13.45.02.12.22-.25.22-.2.41.04.15.44.07.56.07s.2,0,.31-.05c.16-.06.39-.13.54-.23.13-.09.17-.31.19-.46.01-.09,0-.17,0-.23-.06.04-.13.06-.18.08"/><path class="cls-23" d="m364.6,23.19c-.07-.02-.15-.04-.21,0-.08.04-.07.13-.12.19-.1.1-.45.01-.58,0-.17,0-.28.1-.3.26,0,.11.04.25.07.35.03.1.12.19.1.3-.02.13-.19.13-.24.24-.07.13-.01.24.04.36.04.1.14.25.26.29.15.05.33-.01.48.03.12.04.23.14.22.28,0,.22-.26.3-.34.48-.04.09-.03.23.04.3.08.07.24.05.33.06.13.01.35-.04.4.12.03.12-.05.24-.04.38,0,.14.17.22.27.27.15.07.33.07.49.07.22,0,.45-.06.67-.07.1,0,.2.02.27-.04.17-.17.16-.53.11-.75-.03-.16-.11-.32-.18-.48-.14-.33-.22-.7-.39-1.02-.05-.1-.14-.19-.21-.28-.05-.07-.08-.15-.13-.23-.05-.08-.12-.15-.17-.24-.03-.05-.05-.12-.08-.18-.05-.08-.12-.16-.18-.23-.08-.1-.2-.07-.27-.18-.08-.12-.18-.23-.32-.27"/><path class="cls-44" d="m366.52,26.28c-.03-.16-.11-.32-.18-.48-.14-.34-.22-.7-.39-1.02-.06-.1-.14-.19-.21-.29-.04-.07-.08-.15-.13-.23-.04-.06-.09-.12-.13-.18-.23.36-.5.57-.76.27-.46-.52-.99-.8-1.27-.91-.04.04-.06.1-.07.18,0,.11.04.25.07.35.03.1.12.19.1.3-.02.13-.19.13-.24.24-.07.13-.01.24.04.36.04.1.14.25.26.29.15.05.33-.01.48.03.12.04.23.14.22.28-.01.22-.26.3-.34.48-.04.08-.03.23.04.3.08.07.24.05.33.06.13,0,.35-.04.4.11.03.12-.05.25-.04.38,0,.14.17.22.27.27.15.07.33.07.49.07.22,0,.45-.06.67-.07.1,0,.2.02.27-.04.17-.17.16-.53.11-.75"/><path class="cls-23" d="m363.44,23.94s-.05.29,0,.47c.08-.04.11-.09.11-.15,0-.1-.1-.22-.11-.32"/><path class="cls-34" d="m364.07,25.83s0,.11.2.13c.21.01.32,0,.44.1.07.07.2.25.03.25-.19,0-.58.04-.71-.02-.1-.05-.17-.27.03-.46"/><path class="cls-23" d="m364.47,25.47s0,.15.19.28c.2.13.13.39.13.39,0,0,.34-.06.33-.25-.01-.18-.11-.3-.64-.41"/><path class="cls-42" d="m364.85,23.44c-.06,0-.12-.03-.19-.01-.16.03-.12.17-.14.3-.03.12-.1.23-.11.37,0,.15.06.22.13.33.07.12.05.26-.05.35-.11.1-.19.18-.21.33-.01.12,0,.24.09.31.2.15.5.12.66.34.09.12,0,.21-.1.27-.07.05-.15.09-.23.13-.05.03-.13.05-.17.1-.1.11,0,.26.13.3.07.02.13.05.2.08.06.03.14.03.2.04.09.02.21.03.28.08.04.04.06.11.09.15.2.26.56.23.84.24.07,0,.16,0,.22.05.14.12-.06.22-.11.3-.09.16.21.18.31.2.07.01.15.06.22.04.06-.01.1-.05.15-.08.07-.04.14-.05.21-.09.2-.1.19-.31.22-.5.02-.11.01-.21,0-.32-.02-.11-.02-.22-.07-.33-.02-.05-.06-.09-.09-.13-.09-.16-.12-.28-.11-.48,0-.14.05-.28.03-.42-.03-.13-.08-.25-.16-.36-.04-.06-.09-.1-.1-.18-.01-.08-.01-.16-.02-.24-.01-.1-.08-.34-.22-.25-.09.06-.15.22-.2.31-.04.08-.13.11-.17,0-.04-.13-.01-.26-.05-.39-.03-.12-.05-.25-.13-.36-.07-.1-.15-.22-.24-.31-.06-.06-.22-.14-.3-.13-.13.02-.06.24-.22.19-.06-.02-.13-.09-.18-.12-.06-.04-.13-.08-.19-.1-.07-.02-.14,0-.21-.02"/><path class="cls-34" d="m365.84,27.07s-.24.11-.69.06c-.46-.05-.56-.3-.4-.58.16-.28.98.13,1.09.52"/><path class="cls-11" d="m348.56,33.62c-.07-.25-.22.26-.34.28-.11.02-.09.18-.09.28-.02.41.4.24.46.96.05.6.2-.65-.03-1.52"/><path class="cls-11" d="m348.98,31.29s-.1-.37-.32-.63c-.18-.21-.11.46-.11.54s.25.27.17,1.02c-.08.74.27-.93.27-.93"/><path class="cls-11" d="m349.7,29.46s-.16-.25-.28-.19c-.11.06-.09.18-.17.09-.08-.08-.13-.09-.13.09s0,.24.09.34c.09.11.18.22.18.33s.3-.67.3-.67"/><path class="cls-11" d="m350.91,26.69s.08.4.03.56c-.05.15-.22.33-.22.33,0,0,.03-.34,0-.61-.04-.27.18-.27.18-.27"/><path class="cls-11" d="m349.74,29.71s.26.07.53-.05c.27-.12.15.18-.09.25-.24.07-.57.02-.57.02l.13-.22Z"/><path class="cls-11" d="m349.58,31.49s-.48.15-.62.36c-.14.2.13-.72.22-.82.09-.09.23.02.21.14-.02.12-.19.14-.14.21.05.07.22.05.4.01.18-.03-.07.09-.07.09"/><path class="cls-11" d="m352.01,25.57s-.24.09-.23.26c.01.17.05.31.05.31l-.23.29s-.01-.47.02-.67c.03-.2.38-.41.59-.58.21-.17-.2.4-.2.4"/><path class="cls-12" d="m350.23,38.99s-.1.48-.06.65c.05.17-.16.08-.24.02-.08-.06-.17,0-.03.17.14.16.21.27.33.32.05.14.22.7.48,1.04.01.27-.02.51.51,1.06.53.55,1.34.89,1.34.89,0,0-.05-.67-.57-.95-.52-.27-.66-.57-.74-.71-.08-.14.03-.25-.14-.28-.17-.04.02-.15-.24-.25-.16-.31-.27-.58-.32-.8-.06-.22.09-.44.22-.45.13-.01-.31-.42-.54-.71"/><path class="cls-12" d="m359.69,46.59s.51.42.74.58c.24.17.46.31.71.49.25.18.5.41.52.52.02.11.02.29.12.4.1.11.17.15.27.15s.2.06.26.17c.05.11.09.24.17.33.08.09.44.08.61,0,.17-.08.35-.26.43-.34.08-.08.28-.08.41-.15.13-.08.27-.19.14-.34-.13-.15-.26-.13-.45-.12-.19.01-.6-.28-1.1-.63-.5-.35-.69-.76-.69-.76l-2.04-.43-.11.14Z"/><path class="cls-40" d="m361.66,48.18c.02.11.02.29.12.4.1.11.17.15.27.15s.21.05.26.16c.05.11.08.23.16.32,0-.1.02-.21.06-.28.06-.1.19-.18.29-.26.1-.08,0-.13-.05-.1-.06.04-.17.16-.26.23-.09.07-.11-.05-.07-.12.05-.07.21-.14.16-.15-.05,0-.19-.09-.27-.19-.08-.1-.29-.22-.47-.37-.17-.15-.42-.29-.48-.36-.06-.07.07-.09.18-.1.08,0,.58,0,.82.01-.41-.33-.57-.67-.57-.67l-2-.42-.07.04-.07.09s.51.42.74.59c.24.17.46.31.71.49.25.18.49.41.52.52m.22.14c.04-.05.14-.05.21.01.07.06.09.15.04.21-.05.06-.14.05-.21-.01-.07-.06-.09-.15-.04-.21"/><path class="cls-12" d="m358.26,46.67s-.26.35-.43.49c-.17.14-.38.21-.48.32-.11.11-.23.18-.26.26-.03.09.01.2-.05.27-.07.06-.18.05-.28.05s-.12.04-.21.12c-.09.08-.16.17-.23.19-.06.02-.13.03-.09.08.04.04.18.22.1.3s-.16.08-.24.13c-.07.06-.17.07-.26.06-.09-.01-.17.15-.23.24-.05.09-.01.19-.18.23-.17.04-.52.02-.72-.12-.21-.14-.38-.32-.44-.4s-.18-.05-.27-.08c-.09-.02-.09-.11-.02-.21.06-.1.14-.2.22-.19.08.01.26-.03.39-.14.13-.11.35-.28.38-.3.03-.02-.02-.24.1-.31.12-.07.15-.09.27-.1.12-.01.28,0,.35-.03.06-.03.13-.1.21-.13.09-.03.21-.08.28-.17.07-.08.37-.33.37-.33l1.74-.23Z"/><path class="cls-40" d="m356.52,46.9s-.3.25-.37.33c-.01.01-.02.02-.03.03.1,0,.21-.02.28-.03.12-.02.33-.09.44-.03.11.07.12.13.07.28-.06.15-.19.2-.33.27-.14.07-.3.17-.34.25-.04.07-.25.22-.31.33-.06.11-.14.2-.11.23.04.04.06,0,.12-.08.07-.07.14-.1.21-.09.02,0,.04,0,.07,0,.01-.02.05-.03.1-.04.07-.02.14-.11.23-.19.09-.08.11-.12.2-.12s.22.01.28-.05c.06-.07.02-.18.05-.26.03-.09.15-.15.26-.26.11-.11.31-.19.48-.32.17-.13.43-.48.43-.48l-1.74.23Zm-.51,1.8c-.09.04-.16.03-.21-.05-.04-.08-.15-.04-.17.01-.02.05-.04.15-.15.08-.11-.08-.39-.18-.6-.15-.21.02-.53-.01-.38.04.15.06.22-.01.67.12.27.08.39.27.44.41.05-.09.14-.24.22-.23.09.01.18,0,.26-.05.08-.05.15-.05.24-.13.07-.06,0-.18-.06-.25-.09.05-.18.17-.25.21m-.88-.71c.11.03.25.02.38-.06.13-.08.26-.29.27-.41,0-.03,0-.05,0-.06-.03.02-.06.04-.08.06,0,.04-.03.12-.09.19-.07.08-.16.19-.38.18-.12,0-.19-.13-.19-.21-.05.03-.07.1-.07.16.02.09.09.14.17.16"/><path class="cls-14" d="m351.81,47.77c-.14,0-.22,0-.26-.02-.18-.06-1.55-.92-2.24-1.39-.41-.27-.69-.42-.93-.54-.18-.1-.35-.18-.55-.31-.19-.12-.58-.86-.66-1.07,0-.01,0-.02,0-.03.57-.82.87-1.95.87-1.96,0-.01.02-.02.03-.02h1.62s.1-.66.1-.66c0-.01,0-.02.02-.03,0,0,.01,0,.02,0,0,0,0,0,.01,0,.42.21.6.42.54.63,0,.03-.02.05-.03.08-.04.14-.1.31-.09.72.01.5.18.87.27.95.15.12,1.39,1.05,1.47,1.09.03,0,1.08-.09,1.57-.13l-.1-.09s-.01-.03,0-.05c0,0,.23-.27.47-.86.2-.49.24-.8.27-.96,0-.06.01-.1.02-.12.03-.11.23-.22.39-.22.03,0,.05,0,.08.01.11.03,1.91.71,2,.78.07.05.65.78.75.91h.38c.12-.08.64-.39.74-.39.09,0,.33.05.39.07l.38-.25s.01,0,.02,0c0,0,.02,0,.02.01l.47.5h.85c.1-.15.48-.77.57-.82.1-.06,1.7-.77,1.89-.83.02,0,.05-.01.08-.01.19,0,.52.16.53.27.01.08.26,1.3.28,1.41l.34.43s0,.03,0,.04l-.09.12c.23.02,1.08.1,1.48.1.14,0,.19,0,.2-.01.15-.05,1.14-.89,1.53-1.22l.11-1.36s-.06-.12-.13-.18c-.1-.09-.11-.19-.05-.29.05-.08.41-.42.42-.43,0,0,.02,0,.02,0,0,0,.01,0,.02,0l.17.12s.01.01.01.02l.1.54h1.08s.09,0,.13,0c.04,0,.08,0,.12,0,.1,0,.21.01.28.1.11.14.07.27.05.32l.88,1.7s0,.03,0,.04c-.02.03-.58.71-.75.87-.11.1-.23.15-.33.2-.07.03-.14.06-.19.1-.14.1-1.48,1.01-1.77,1.21-.35.23-1.18.78-1.3.81-.01,0-.05,0-.2,0-.46,0-1.66-.05-2.17-.13-.61-.09-1.67-.3-1.93-.37-.13-.04-.29-.05-.48-.07-.16-.01-.34-.03-.52-.07-.37-.07-1.09-.32-1.21-.36-.12.09-.75.53-.89.53-.14-.02-.69-.34-.79-.4-.15.02-1.84.29-2.04.32-.07,0-.23.05-.42.11-.38.11-.97.28-1.54.37-.72.11-1.86.19-2.37.19"/><path class="cls-10" d="m367.86,41.63l.17.12.11.56h1.11c.09,0,.18,0,.25,0,.1,0,.19.02.25.09.12.15.04.3.04.3l.89,1.72s-.57.71-.75.87c-.17.16-.37.19-.52.29-.14.1-1.48,1.01-1.76,1.21-.29.19-1.18.78-1.29.81-.02,0-.09,0-.19,0-.47,0-1.67-.05-2.16-.13-.6-.09-1.66-.29-1.92-.37-.26-.07-.6-.06-1-.13-.4-.07-1.22-.37-1.22-.37,0,0-.74.53-.88.53h0c-.13-.01-.77-.4-.77-.4,0,0-1.84.29-2.05.32-.22.03-1.09.35-1.97.48-.7.11-1.85.19-2.36.19-.13,0-.22,0-.25-.02-.17-.06-1.53-.91-2.24-1.38-.7-.47-1.02-.56-1.48-.85-.17-.11-.56-.84-.65-1.06.57-.84.88-1.97.88-1.97h1.65s.1-.69.1-.69c.47.24.56.43.52.59-.04.15-.13.31-.12.82.01.51.18.89.28.97.1.08,1.43,1.09,1.49,1.09s1.65-.13,1.65-.13l-.15-.14s.23-.26.48-.87c.26-.65.26-.99.29-1.09.03-.09.21-.2.35-.2.02,0,.04,0,.07,0,.15.04,1.92.72,1.99.77.08.05.75.91.75.91h.4s.64-.39.73-.39.4.07.4.07l.39-.25.47.51h.88s.47-.77.57-.83c.1-.06,1.7-.77,1.88-.83.02,0,.05,0,.07,0,.2,0,.49.16.5.24.01.09.28,1.42.28,1.42l.34.44-.13.16s1.07.11,1.54.11c.1,0,.18,0,.21-.02.18-.07,1.55-1.23,1.55-1.23l.11-1.39s-.05-.12-.14-.2c-.09-.08-.1-.17-.04-.24.05-.08.42-.43.42-.43m0-.07s-.03,0-.04.02c-.04.04-.37.36-.43.44-.07.11-.05.23.05.33.06.05.1.13.12.16l-.1,1.34c-.53.45-1.39,1.16-1.51,1.2,0,0-.05.01-.19.01-.38,0-1.13-.07-1.42-.09l.05-.07s.02-.06,0-.08l-.33-.43c-.08-.38-.27-1.33-.28-1.4-.02-.13-.36-.3-.56-.3-.03,0-.06,0-.09.01-.19.06-1.8.78-1.9.83-.1.05-.42.57-.57.83h-.82s-.46-.5-.46-.5c-.01-.01-.03-.02-.05-.02-.01,0-.02,0-.03,0l-.37.24c-.08-.02-.3-.06-.39-.06-.1,0-.55.26-.75.38h-.35c-.15-.18-.67-.84-.74-.89-.09-.07-1.9-.75-2.01-.78-.03,0-.05-.01-.08-.01-.17,0-.38.12-.41.24-.01.03-.02.07-.02.13-.02.17-.07.48-.26.96-.24.58-.46.85-.46.85-.02.03-.02.07,0,.09l.04.04c-.6.05-1.38.11-1.48.12-.14-.08-1.32-.96-1.46-1.08-.07-.05-.24-.41-.25-.92,0-.41.05-.58.09-.71,0-.03.02-.06.03-.08.06-.23-.12-.44-.55-.67,0,0-.02,0-.03,0s-.02,0-.03,0c-.02.01-.03.03-.03.05l-.09.62h-1.6s-.05.03-.06.06c0,.01-.3,1.13-.87,1.95-.01.02-.02.04,0,.06.09.22.48.96.67,1.09s.37.21.55.31c.25.13.52.27.93.54.7.46,2.07,1.33,2.25,1.39.02,0,.08.02.27.02.5,0,1.65-.08,2.37-.19.58-.09,1.16-.26,1.55-.37.19-.06.35-.1.42-.11.2-.03,1.81-.29,2.03-.32.15.08.65.38.78.39,0,0,.01,0,.01,0,.15,0,.69-.38.89-.52.16.05.84.29,1.2.36.19.04.37.05.53.06.18.02.34.03.47.07.25.07,1.31.28,1.93.37.51.08,1.71.13,2.17.13.15,0,.19,0,.21,0,.12-.03.87-.52,1.31-.82.29-.19,1.63-1.11,1.77-1.21.05-.04.12-.07.19-.1.11-.05.23-.1.34-.2.17-.16.73-.85.75-.87.02-.02.02-.05,0-.07l-.88-1.69c.02-.06.05-.2-.06-.34-.08-.1-.2-.12-.3-.12-.04,0-.08,0-.12,0-.04,0-.09,0-.13,0h-1.05l-.1-.51s-.01-.03-.03-.04l-.17-.12s-.02-.01-.04-.01"/><path class="cls-43" d="m361,44.38c.1-.05,2.09-1.19,2.24-1.28.15-.09.21-.17-.05-.14-.27.03-.62.23-.95.37-.33.14-.81.38-.92.44-.08.05-.24.31-.35.49-.08.12-.03.15.03.12"/><path class="cls-43" d="m350.23,42.26c-.04-.12-.31-.29-.43-.36l-.08.54c.32.02.55-.05.51-.18"/><path class="cls-43" d="m348.39,42.63c-.13,0-.22.1-.01.19.99.45,1.46.8,2.04,1.2-.08-.17-.16-.46-.16-.79,0-.32.03-.5.06-.63-.37,0-1.82.03-1.93.03"/><path class="cls-43" d="m369.45,42.6c.21-.1.04-.1-.16-.11-.16,0-1.28,0-1.68,0,0,.01.01.02.01.02l-.11,1.39s-.03.02-.08.07c.6-.5.67-.6,1.1-.85.44-.24.71-.41.91-.51"/><path class="cls-43" d="m354.55,43.02c.11.11,1.24.75,1.9,1.05.41.18.69.25.85.27-.2-.25-.58-.72-.63-.76-.07-.05-1.52-.6-1.91-.74-.23-.01-.29.1-.21.18"/><path class="cls-43" d="m358.96,45.03c.02.14.11.31.17.45.06.14.31.42-.02.82-.1.07-.27.19-.38.17-.11-.02-.24,0-.33.06-.09.07-.43.1-.56.16-.06.03-.41.12-.77.21.55-.09,1.12-.18,1.12-.18,0,0,.65.38.78.39.13.02.89-.53.89-.53,0,0,.02,0,.06.02.04-.06.08-.11.12-.13.14-.11.53-.34.6-.41.07-.07.12-.13.13-.35s.06-.33-.07-.49c-.13-.16-1.05-1-1.05-1,0,0,.2.3.86,1.06.12.14.07.32.05.41-.02.09-.13.11-.24.07-.11-.04-.16.02-.16.02,0,0-.07.15-.11.25-.04.1-.12.27-.2.29s-.12-.05-.22.04c-.1.09-.38.36-.47.4-.09.04-.22.01-.35-.11.34-.12.4-.17.46-.24.06-.07.14-.21.23-.3.09-.08.04-.33-.06-.5-.1-.17-.11-.27-.21-.45-.1-.17-.17-.59-.3-.74-.13-.15-.5-.11-.88-.1l-.14.08c.3-.02.67-.04.81.05.12.07.22.42.24.56"/><path class="cls-43" d="m368.11,42.3l-.1-.5h-.02c-.08.04-.22.15-.3.23-.11.12-.06.31.41.27"/><path class="cls-3" d="m348.55,45.31s-.01,0-.01,0l-.17-.12c-.11-.08-.16-.15-.17-.27l-.04-.45v-.39s0-.02.02-.02c0,0,0,0,.01,0,0,0,0,0,.01,0,.07.03.16.07.26.07s.17-.04.22-.11c.03-.05.04-.11.03-.17-.02-.07-.06-.13-.13-.17-.03-.02-.07-.04-.12-.06l-.57.87c-.06.08-.13.19-.07.27,0,0,0,.02,0,.03,0,0-.01.01-.02.01,0,0,0,0-.01,0,0,0,0,0-.01,0l-.36-.25s-.02-.02,0-.04c0,0,.02-.02.03-.02h0s.02,0,.03,0c.08,0,.14-.1.18-.17l.49-.76.02-.03c.06-.08.13-.19.07-.26,0,0,0-.02,0-.03,0,0,.01-.01.02-.01,0,0,0,0,.01,0,0,0,0,0,.01,0l.45.31c.13.08.21.19.24.3.03.11.01.22-.05.31-.08.11-.21.18-.36.18-.05,0-.1,0-.15-.02l.04.49c.01.14.06.32.13.47,0,.01,0,.02,0,.03,0,0-.01,0-.02,0"/><path class="cls-10" d="m348.26,43.25l.45.31c.25.17.3.4.19.58-.08.11-.21.17-.34.17-.06,0-.12-.01-.18-.03l.04.54c.02.15.07.33.13.48l-.17-.12c-.1-.07-.15-.13-.16-.24l-.04-.45v-.39c.09.04.18.07.27.07s.18-.03.24-.12c.09-.14.03-.3-.1-.38-.04-.03-.09-.05-.14-.07l-.57.86c-.06.09-.16.22-.09.32h0s-.36-.24-.36-.24h0s.02,0,.03,0c.1,0,.17-.13.23-.21l.47-.73c.06-.09.16-.22.09-.32h0m0-.06s-.03,0-.04.02h0s-.01.05,0,.07c.04.06,0,.14-.07.23l-.02.03-.47.73-.02.03c-.04.07-.1.16-.16.16,0,0-.01,0-.02,0,0,0,0,0-.01,0-.02,0-.03,0-.04.02-.02.02-.01.06.01.08l.36.25s.02,0,.03,0c.02,0,.03,0,.04-.02.01-.02.02-.05,0-.07-.04-.06,0-.14.07-.23l.02-.03.21-.31v.32s.04.45.04.45c.01.12.06.21.18.28l.17.12s.02,0,.03,0c.01,0,.02,0,.03-.01.02-.01.02-.04.01-.06-.07-.15-.11-.33-.12-.46l-.04-.46s.08.01.12.01c.16,0,.3-.07.38-.19.07-.1.08-.22.05-.33-.03-.12-.12-.23-.25-.32l-.45-.31s-.02,0-.03,0m-.05.84l.26-.39s.07.03.09.05c.06.04.1.09.12.16.01.05,0,.1-.03.15-.04.07-.11.1-.2.1s-.18-.03-.24-.06"/><path class="cls-3" d="m349.35,45.84s0,0-.01,0l-.8-.52s-.02-.02,0-.04c0,0,.02-.02.03-.02h0s.02,0,.02,0c.08,0,.14-.1.19-.18l.49-.79c.05-.09.12-.19.07-.27,0,0,0-.02,0-.03,0-.01.02-.02.03-.02,0,0,0,0,.01,0l.61.4c.12.08.15.09.17.09,0,0,.01,0,.02,0,0,0,.01.02.01.03l-.04.26s0,.02-.01.02c0,0,0,0-.01,0,0,0-.01,0-.01,0,0,0-.02-.02-.02-.02-.01-.08-.21-.2-.3-.26l-.05-.03c-.06-.04-.12-.07-.18-.1l-.2.32.21.13s.06.04.08.04c0,0,.01,0,.02,0,.01,0,.02.02,0,.04l-.13.21s0,.01-.02.01h0s-.01,0-.01,0c0,0-.02-.02-.02-.03,0-.06-.06-.1-.12-.14l-.13-.08-.26.42.21.17c.09.07.21.12.33.12.03,0,.05,0,.08,0h0s.01,0,.01,0c0,0,.02.01.02.02,0,0,0,.02,0,.02l-.25.2s-.01,0-.02,0"/><path class="cls-10" d="m349.35,44.01l.61.4s.14.1.18.1h0s-.04.27-.04.27h0c-.02-.11-.27-.26-.36-.31-.07-.04-.14-.08-.2-.11l-.23.36.23.15s.06.04.09.04h0s-.13.21-.13.21h0c0-.08-.08-.13-.14-.17l-.14-.09-.29.46.23.18c.1.08.22.12.34.12.03,0,.05,0,.08,0h0s-.24.21-.24.21l-.8-.52h0s.02,0,.03,0c.1,0,.17-.14.22-.22l.46-.74c.06-.09.15-.23.08-.33h0m0-.06s-.03,0-.04.02h0s-.01.05,0,.07c.04.06,0,.14-.07.24l-.02.03-.46.74-.02.03c-.04.07-.1.17-.16.17,0,0-.01,0-.02,0,0,0,0,0-.01,0-.02,0-.03,0-.04.02,0,.01-.01.03,0,.04,0,.01.01.03.02.04l.8.52s.02,0,.03,0c.01,0,.02,0,.03-.01l.24-.2s.02-.03.02-.05c0-.02-.01-.03-.02-.04,0,0-.03-.01-.04-.01h0s-.05,0-.07,0c-.11,0-.22-.04-.31-.11l-.19-.15.23-.38.1.06h0s.11.07.11.12c0,.02,0,.04.02.05,0,0,.02.01.03.01,0,0,0,0,0,0,.01,0,.03,0,.04-.02l.13-.21s0-.06-.01-.07h0s-.01-.01-.02-.01c-.02,0-.04-.02-.07-.03l-.18-.12.17-.28c.05.03.11.06.16.09.01,0,.03.02.05.03.08.05.28.17.29.24,0,.02.01.03.02.04,0,0,.02,0,.03,0,0,0,.01,0,.02,0,.02,0,.03-.02.03-.04l.04-.26s0-.04-.02-.05c0,0-.02-.01-.03-.01-.01,0-.04-.02-.14-.08h-.01s-.61-.4-.61-.4c0,0-.02,0-.03,0"/><path class="cls-3" d="m349.88,46.2s0,0,0,0l-.39-.24s0-.01-.01-.02c0,0,0-.02,0-.02,0,0,.02-.02.03-.02h0s.01,0,.02,0c.08,0,.14-.11.18-.18l.47-.8c.05-.08.12-.2.06-.27,0,0,0-.02,0-.03,0,0,.01-.01.02-.02,0,0,0,0,.01,0,0,0,0,0,0,0l.47.29c.13.08.23.19.27.3.05.12.04.25-.02.36-.08.13-.22.21-.38.21-.1,0-.21-.03-.3-.09-.06-.04-.1-.08-.13-.12,0-.01,0-.02,0-.03,0,0,.01,0,.02,0,0,0,0,0,.01,0,.07.04.15.06.23.06.08,0,.2-.02.27-.14.11-.19-.03-.32-.12-.38-.04-.02-.08-.04-.12-.06l-.51.88c-.07.12-.1.18-.04.29,0,0,0,.02,0,.03,0,0-.01.01-.02.02,0,0,0,0-.01,0"/><path class="cls-10" d="m350.26,44.63l.47.29c.25.15.37.4.24.62-.08.14-.21.2-.36.2-.1,0-.2-.03-.29-.08-.05-.03-.09-.07-.12-.11.07.04.16.06.24.06.11,0,.22-.05.29-.16.1-.17.02-.32-.13-.41-.05-.03-.09-.05-.15-.07l-.52.9c-.07.11-.11.19-.04.31h0s-.39-.23-.39-.23h0s.02,0,.03,0c.11,0,.17-.14.22-.22l.44-.75c.05-.09.15-.23.08-.33h0m0-.06s0,0-.01,0c-.01,0-.03.01-.03.02h0s0,.05,0,.06c.04.06-.02.17-.06.24l-.02.03-.44.75-.02.03c-.04.07-.1.17-.16.17,0,0-.01,0-.02,0,0,0,0,0-.01,0-.02,0-.03,0-.04.02,0,.01-.01.03,0,.04,0,.01.01.03.02.04l.39.24s.02,0,.03,0c0,0,0,0,.01,0,.01,0,.03-.01.03-.03,0-.02.01-.04,0-.06-.05-.09-.03-.14.04-.25h0s.18-.32.18-.32c.03.05.08.09.14.13.1.06.21.09.32.09.17,0,.32-.08.4-.22.07-.12.08-.25.03-.38-.05-.12-.15-.23-.29-.31l-.47-.29s-.02,0-.03,0m-.05.91l.27-.46s.06.03.09.05c.11.07.21.18.12.34-.06.11-.17.13-.24.13s-.15-.02-.22-.06c0,0-.01,0-.02,0"/><path class="cls-3" d="m351.22,47s-.02,0-.02-.01l-.03-.05c-.09-.13-.12-.18-.12-.36l.03-1.07c0-.11,0-.22-.04-.3,0,0,0-.02,0-.02,0,0,0-.01.02-.02,0,0,.01,0,.02,0,0,0,0,0,0,0l.31.12s.01,0,.01.02c0,0,0,.01,0,.02v.02s-.03.14-.03.19l-.03,1.02.55-.62c.13-.14.22-.25.14-.33,0,0,0-.02,0-.03,0,0,0-.02.02-.02,0,0,.01,0,.02,0,0,0,0,0,0,0l.31.13s.01,0,.02.02c0,0,0,.02,0,.02l-1.13,1.26s-.01,0-.02,0h0Z"/><path class="cls-10" d="m351.06,45.19l.31.12v.02s-.03.17-.03.22l-.03,1.07.59-.66c.12-.13.26-.28.15-.38h0s.31.12.31.12l-1.13,1.26c-.11-.16-.15-.2-.14-.39l.03-1.01c0-.13.02-.27-.04-.38h0m0-.06s-.01,0-.02,0c-.01,0-.02.02-.03.03h0s0,.04,0,.05c.05.08.04.19.04.29,0,.02,0,.04,0,.06l-.03,1.01c0,.19.04.25.12.38l.03.04s.02.02.04.02c0,0,0,0,0,0,.01,0,.03,0,.04-.02l1.14-1.26s.02-.03.01-.05c0-.02-.01-.03-.03-.04l-.31-.13s-.01,0-.02,0c0,0-.01,0-.02,0-.01,0-.02.02-.03.03h0s0,.05.01.06c.06.06-.02.16-.14.3h-.01s-.49.57-.49.57l.03-.93v-.02s0-.15.02-.19v-.02s.02-.03.01-.04c0-.01-.02-.02-.03-.03l-.31-.12s-.01,0-.02,0"/><path class="cls-3" d="m352.44,47.23s-.03-.01-.03-.02h0s0-.03.02-.03c.09-.04.08-.16.08-.27l-.03-.94c0-.1,0-.23-.09-.26,0,0-.02-.01-.02-.02,0,0,0-.02,0-.02,0,0,.01-.01.02-.01l.54-.02h.03c.29,0,.47.13.48.35,0,.13-.05.22-.17.3.2.06.33.21.34.41,0,.18-.1.35-.27.44-.15.08-.32.08-.48.09h-.41m.52-.22s.02,0,.03,0c.1,0,.19-.03.24-.09.04-.05.07-.11.06-.18,0-.2-.19-.27-.35-.27-.01,0-.03,0-.05,0h-.13s.02.54.02.54h.17Zm-.2-.74h.05c.05,0,.33-.02.33-.23,0-.13-.12-.2-.23-.2-.01,0-.02,0-.03,0l-.13.02v.4Z"/><path class="cls-10" d="m352.96,45.66c.28,0,.45.12.45.32,0,.15-.09.25-.22.31.2.04.38.17.38.4,0,.18-.11.33-.26.41-.16.08-.34.08-.51.09h-.37s0,0,0,0c.11-.05.09-.22.09-.32l-.03-.87c0-.11,0-.28-.11-.32h0s.54-.03.54-.03c.01,0,.02,0,.03,0m-.22.62h.08c.15,0,.36-.07.35-.26,0-.14-.12-.22-.25-.22-.01,0-.03,0-.04,0l-.15.02v.45m.27.74c.18,0,.34-.1.33-.3,0-.21-.19-.3-.37-.3-.02,0-.03,0-.05,0h-.16s.02.59.02.59h.2s.02.01.03.01m-.03-1.42s-.02,0-.03,0l-.54.02s-.03,0-.04.02c-.01,0-.01.02-.01.04h0s.01.05.04.05c.07.02.07.12.07.23v.04s.03.88.03.88v.03c0,.12,0,.21-.06.24-.02,0-.03.03-.03.05,0,.03.03.06.05.06h.38s.04-.01.04-.01c.17,0,.34-.01.49-.09.18-.1.29-.28.29-.46,0-.19-.12-.34-.3-.41.1-.08.14-.17.14-.29,0-.23-.2-.37-.5-.37m-.18.27l.11-.02s.02,0,.03,0c.09,0,.2.05.2.17,0,.06-.03.11-.09.15-.05.03-.13.05-.21.05h-.02s-.01-.35-.01-.35Zm.02.61h.11s.03-.01.04-.01c.14,0,.32.07.32.25,0,.07-.02.12-.06.17-.05.05-.13.08-.22.08-.01,0-.02,0-.03,0h-.15s-.01-.48-.01-.48Z"/><path class="cls-3" d="m353.65,47.15s-.02-.01-.03-.02h0s0-.03.02-.03c.08-.04.07-.17.06-.27l-.09-.94c0-.1-.02-.23-.11-.25,0,0-.02-.01-.02-.02,0-.02,0-.03.02-.04l.53-.05s.06,0,.09,0c.26,0,.42.12.44.32.01.13-.04.23-.15.31.21.05.34.19.36.38.02.17-.08.35-.25.46-.14.09-.31.11-.47.12l-.41.04m.34-.27h.17c.11,0,.21-.04.26-.1.05-.05.07-.12.06-.2-.02-.18-.18-.25-.33-.25-.03,0-.05,0-.08,0l-.13.02.05.52Zm-.07-.73h.05c.05,0,.33-.05.31-.25-.01-.13-.12-.18-.22-.18-.02,0-.04,0-.05,0l-.13.03.04.4Z"/><path class="cls-10" d="m354.13,45.54c.24,0,.39.11.41.29.01.16-.08.25-.2.32.21.02.38.15.41.37.02.18-.09.34-.23.43-.15.1-.33.11-.5.12l-.37.04h0c.11-.06.08-.23.07-.34l-.08-.87c-.01-.1-.01-.28-.13-.31h0s.53-.06.53-.06c.03,0,.06,0,.09,0m-.24.64h.07c.15-.02.35-.1.33-.28-.01-.14-.13-.21-.24-.21-.02,0-.04,0-.06,0l-.15.03.04.45m.07.72h.2c.19,0,.37-.11.35-.33-.02-.19-.18-.27-.36-.27-.03,0-.06,0-.08,0l-.16.02.05.57m.17-1.41h0s-.06,0-.1,0l-.53.05s-.05.03-.05.06c0,.02.02.05.04.05.07.02.08.11.09.23v.03s.09.87.09.87v.03c.02.12.02.21-.04.24-.02,0-.03.03-.03.05h0s.03.05.05.05h0l.37-.04h.04c.16-.02.33-.04.48-.13.17-.11.28-.3.26-.48-.02-.19-.14-.33-.33-.39.09-.08.13-.18.12-.3-.02-.21-.19-.34-.46-.34m-.23.28l.1-.02s.03,0,.05,0c.09,0,.18.05.19.16.02.18-.24.21-.29.22h-.02s-.03-.35-.03-.35Zm.06.61l.11-.02s.05,0,.08,0c.14,0,.29.06.3.23,0,.07-.01.13-.05.18-.05.06-.14.09-.24.09h-.15s-.04-.47-.04-.47Z"/><path class="cls-3" d="m354.87,46.92s-.02,0-.03-.02h0s0-.03.01-.04c.08-.05.06-.18.04-.27l-.15-.92c-.01-.1-.03-.23-.13-.25-.01,0-.02-.01-.02-.02,0-.02,0-.04.02-.04,0,0,.43-.07.43-.07,0,0,.01,0,.02,0,0,0,0,.01.01.02,0,.01,0,.03-.01.03-.08.05-.06.17-.04.27l.16,1.01.28-.03c.14-.01.26-.08.36-.2,0,0,0,0,.02,0,0,0,0,0,0,0,0,0,.02,0,.02,0,0,0,.01.01,0,.02l-.07.32s-.01.02-.02.02c0,0-.92.15-.92.15"/><path class="cls-10" d="m355.06,45.31h0c-.11.07-.07.24-.05.34l.16,1,.31-.03c.15-.02.28-.09.37-.21h0s-.07.32-.07.32l-.92.15h0c.11-.07.07-.23.05-.33l-.14-.86c-.02-.11-.03-.27-.15-.3h0s.43-.08.43-.08m0-.05s0,0,0,0l-.43.07s-.05.03-.04.06c0,.02.02.05.04.05.07.01.09.11.1.23v.03s.14.86.14.86v.03c.02.11.04.21-.02.24-.02.01-.03.03-.03.06h0s.03.05.05.05c0,0,0,0,0,0l.92-.15s.04-.02.04-.04l.07-.32s0-.04-.01-.05c-.01-.01-.02-.02-.04-.02,0,0,0,0,0,0h0s-.02,0-.03.02c-.09.11-.21.17-.34.19l-.26.02-.15-.95v-.03c-.03-.11-.04-.21.02-.24.02-.01.03-.03.03-.05h0s-.01-.03-.02-.04c0,0-.02-.01-.03-.01"/><path class="cls-3" d="m355.96,46.7s-.02,0-.03-.02h0s0-.03.01-.04c.08-.05.06-.18.04-.27l-.14-.93c-.02-.1-.03-.22-.12-.24,0,0-.02-.01-.02-.02,0-.01,0-.03.02-.04,0,0,.43-.07.43-.07,0,0,.01,0,.02,0,0,0,0,.01,0,.02,0,.01,0,.03-.01.03-.08.05-.06.18-.04.27l.15.92c.01.1.03.23.12.25.01,0,.02,0,.02.02,0,0,0,.02,0,.02,0,0,0,.01-.02.01,0,0-.43.07-.43.07"/><path class="cls-10" d="m356.15,45.09h0c-.1.07-.07.24-.05.34l.14.86c.02.1.03.27.15.3h0s-.43.08-.43.08h0c.1-.07.07-.23.05-.34l-.14-.86c-.02-.11-.03-.28-.15-.3h0s.43-.08.43-.08m0-.05h0l-.43.07s-.05.03-.04.06c0,.02.02.05.04.05.07.01.09.11.1.22v.04s.14.86.14.86v.03c.02.11.04.21-.02.24-.02.01-.03.03-.03.05,0,.03.03.05.05.05,0,0,0,0,0,0l.42-.07s.03-.01.04-.02c0-.01.01-.03,0-.04,0-.02-.02-.05-.04-.05-.07-.01-.09-.11-.1-.22v-.03s-.14-.86-.14-.86v-.03c-.02-.11-.04-.21.02-.25.02-.01.03-.03.03-.05,0-.01-.01-.03-.02-.04-.01,0-.02-.01-.03-.01"/><path class="cls-3" d="m357.11,46.48c-.44,0-.74-.26-.8-.69-.04-.24,0-.46.14-.63.12-.17.32-.28.55-.32.07-.01.15-.02.24-.02.06,0,.12,0,.19,0,.01,0,.02.01.02.02l.04.26s0,.02-.01.02c0,0,0,0-.02,0,0,0,0,0,0,0-.1-.04-.21-.07-.31-.07-.04,0-.07,0-.11,0-.14.02-.26.1-.34.21-.08.11-.1.26-.08.41.05.31.27.53.55.53.03,0,.06,0,.09,0,.18-.03.34-.14.44-.22,0,0,.01,0,.02,0,0,0,0,0,0,0,0,0,.01,0,.02,0,0,0,0,.01,0,.02l-.07.29s0,.01,0,.02c-.09.06-.2.11-.34.13-.07.01-.14.02-.2.02"/><path class="cls-10" d="m357.22,44.84c.06,0,.12,0,.18,0l.04.26c-.1-.04-.21-.07-.32-.07-.04,0-.07,0-.11,0-.31.05-.49.32-.44.65.05.31.28.55.58.55.03,0,.06,0,.09,0,.17-.03.33-.12.46-.22h0s-.07.28-.07.28c-.1.07-.21.11-.33.12-.07.01-.14.02-.2.02-.42,0-.71-.24-.78-.67-.08-.48.2-.84.66-.92.08-.01.15-.02.23-.02m0-.05h0c-.09,0-.17,0-.24.02-.24.04-.44.15-.56.33-.13.18-.18.4-.14.65.07.45.38.71.83.71.07,0,.14,0,.21-.02.14-.02.26-.07.35-.13.01,0,.02-.02.02-.03l.07-.28s0-.04-.01-.05c-.01,0-.02-.02-.04-.02,0,0,0,0,0,0,0,0-.02,0-.03.01-.1.08-.25.18-.43.21-.03,0-.06,0-.08,0-.26,0-.48-.21-.52-.51-.02-.15,0-.29.07-.39.07-.11.18-.17.32-.2.03,0,.07,0,.1,0,.1,0,.2.02.3.07,0,0,.01,0,.02,0,.01,0,.02,0,.03,0,.01-.01.02-.03.02-.05l-.04-.26s-.02-.04-.05-.04c-.07,0-.13,0-.19,0"/><path class="cls-3" d="m357.76,46.42s-.01,0-.02,0c0,0,0,0-.01-.02h0s0-.03.01-.03c.1-.07.12-.19.15-.31v-.04s.23-1.02.23-1.02c.01-.06.02-.12,0-.15,0-.01-.03-.02-.05-.03-.01,0-.02-.01-.02-.02,0-.02,0-.04.02-.04,0,0,.36-.06.36-.06,0,0,.02,0,.02.01l.67,1.13c.06.11.12.21.24.25.01,0,.02.01.02.02,0,.01,0,.03-.02.04,0,0-.46.07-.46.07,0,0-.01,0-.01,0,0,0,0,0-.01-.02,0,0,0-.03.01-.03.08-.05.07-.05,0-.18l-.18-.31-.53.09-.06.33c-.01.06-.02.11-.01.14,0,.02.02.04.08.05.01,0,.02.01.02.02,0,0,0,.02,0,.02,0,0,0,.01-.02.01,0,0-.41.07-.42.07m.46-.88l.37-.06-.26-.45-.11.51Z"/><path class="cls-10" d="m358.43,44.73l.65,1.1c.07.12.13.24.27.29h0s-.46.08-.46.08h0c.1-.08.08-.1,0-.25l-.17-.3-.56.09-.07.34c-.03.14-.03.21.08.23h0s-.41.07-.41.07h0c.12-.1.14-.23.17-.37l.22-1.02c.02-.09.05-.19-.07-.21h0s.35-.07.35-.07m-.25.83l.44-.07-.31-.54-.13.61m.25-.89s0,0,0,0l-.35.06s-.05.03-.04.06c0,.02.02.05.05.05.01,0,.03,0,.03.02.01.02,0,.08,0,.12h0s-.22,1.03-.22,1.03v.04c-.03.12-.05.23-.15.29-.02.01-.02.03-.02.05h0s.03.05.05.05h0l.41-.07s.03-.01.03-.02c0-.01.01-.03,0-.04h0s-.02-.05-.04-.05c-.05,0-.05-.02-.05-.03,0-.03,0-.08.01-.13l.06-.3.49-.08.15.27.02.03s.05.09.05.11c0,0,0,.01-.04.04-.02.01-.03.03-.02.05,0,.01.01.03.02.04,0,0,.02.01.03.01h0l.46-.08s.05-.03.04-.06c0-.02-.02-.04-.04-.05-.11-.03-.16-.13-.22-.23l-.02-.03-.65-1.1s-.03-.02-.04-.02m-.18.82l.09-.41.21.36-.29.05Z"/><path class="cls-3" d="m360.85,46.44s-.02-.02-.02-.03c0-.01.01-.03.02-.03.09-.02.11-.15.12-.25l.15-.93c.02-.1.04-.22-.04-.27-.01,0-.02-.02-.01-.03,0,0,0-.02.01-.02,0,0,.01,0,.02,0l.43.07s.02.02.02.03c0,.01-.01.03-.02.03-.09.02-.11.15-.12.25l-.14.92c-.02.1-.04.23.04.27,0,0,.01.02.01.03,0,.01-.02.03-.03.03l-.43-.07"/><path class="cls-10" d="m361.09,44.91l.42.07h0c-.12.03-.13.2-.15.31l-.14.87c-.02.1-.06.27.05.33h0s-.42-.06-.42-.06h0c.12-.03.13-.2.15-.3l.13-.86c.02-.11.06-.27-.05-.33h0m0-.06s-.05.02-.05.04h0s0,.05.02.06c.06.04.05.13.03.24v.04s-.14.86-.14.86v.03c-.02.11-.04.21-.11.22-.02,0-.04.02-.04.05,0,.03.01.06.04.07l.42.07s0,0,0,0c.02,0,.05-.02.05-.05,0-.02,0-.05-.02-.06-.06-.03-.05-.14-.03-.24v-.03s.14-.86.14-.86v-.03c.02-.11.04-.21.11-.23.02,0,.04-.02.04-.05,0-.03-.02-.06-.04-.07l-.42-.07h0"/><path class="cls-3" d="m361.87,46.64s-.01,0-.02,0c0,0,0-.01,0-.02,0-.01,0-.03.02-.03.09-.02.1-.15.11-.25l.13-1.03-.17-.02s-.04,0-.06,0c-.08,0-.15.02-.2.06,0,0,0,0-.01,0h0s-.02,0-.02-.01c0,0,0-.02,0-.02l.11-.26s.01-.02.02-.02h0s.01,0,.02,0c.01,0,.03.01.05.02h.03s.89.12.89.12c.02,0,.04,0,.05,0s.03,0,.04,0c0,0,0,0,0,0h.01s.01,0,.02.01c0,0,0,.01,0,.02l-.11.26s-.01.02-.03.02h0s-.03,0-.03-.02c-.01-.05-.06-.08-.16-.1l-.18-.02-.13,1.02c-.02.13-.03.21.07.28,0,0,.01.01.01.02,0,0,0,.02-.01.02,0,0-.01,0-.02,0,0,0-.45-.06-.45-.06"/><path class="cls-10" d="m361.76,45.05h0s.05.02.08.03l.9.11s.04,0,.05,0c.02,0,.04,0,.05,0h0s-.1.27-.1.27h0c-.02-.08-.11-.11-.18-.12l-.2-.03-.13,1.05c-.02.13-.03.22.08.31h0s-.44-.05-.44-.05h0c.12-.04.12-.21.14-.31l.13-1.03-.2-.03s-.04,0-.07,0c-.08,0-.15.02-.21.06h0l.11-.26m0-.05s-.05.01-.05.03l-.11.26s0,.03,0,.05c0,.01.02.02.04.03,0,0,0,0,0,0,.01,0,.03,0,.03-.01.06-.04.13-.05.18-.05.02,0,.04,0,.06,0l.15.02-.12.97v.03c-.02.11-.03.21-.1.23-.02,0-.04.02-.04.04,0,.01,0,.03.01.04,0,.01.02.02.03.02l.45.06s0,0,0,0c.01,0,.02,0,.03-.01.01,0,.02-.02.02-.03,0-.02,0-.05-.02-.06-.08-.06-.08-.12-.06-.25h0s.12-1.01.12-1.01l.15.02c.11.01.13.05.14.08,0,.02.02.04.04.04,0,0,0,0,0,0,.02,0,.05-.01.05-.03l.1-.27s0-.03,0-.04-.02-.02-.04-.03h0s0,0,0,0c0,0-.01,0-.02,0-.01,0-.02,0-.04,0-.02,0-.03,0-.05,0l-.89-.12s-.02,0-.02,0c-.02,0-.03,0-.05-.01,0,0-.01,0-.02,0h0"/><path class="cls-3" d="m363.75,46.99s-.01,0-.02,0c0,0,0-.01,0-.02,0-.01.01-.03.02-.03.08-.03.08-.03.05-.17l-.08-.35-.53-.07-.15.29c-.03.05-.05.1-.05.14,0,.02,0,.04.06.07,0,0,.01.02.01.03,0,.01-.01.03-.03.03,0,0-.42-.05-.42-.05,0,0-.01,0-.02-.01,0,0,0-.01,0-.02,0,0,0-.02.02-.03.12-.04.17-.14.23-.26l.02-.03.49-.91c.03-.06.06-.11.05-.14,0-.02-.02-.03-.04-.04,0,0-.02-.02-.01-.03,0-.01.01-.03.03-.03,0,0,.36.05.36.05,0,0,.02,0,.02.02l.33,1.28c.03.12.06.23.16.31,0,0,.01.02.01.02,0,0,0,.02-.01.02,0,0-.01,0-.02,0,0,0-.46-.06-.46-.06m-.09-.82l-.12-.5-.24.46.37.05Z"/><path class="cls-10" d="m363.36,45.37l.36.04.32,1.24c.04.14.06.27.18.36h0s-.46-.05-.46-.05h0c.12-.04.1-.07.06-.24l-.08-.34-.57-.07-.16.31c-.06.12-.09.19.02.24h0s-.41-.05-.41-.05h0c.14-.06.19-.18.26-.31l.49-.91c.04-.08.1-.17,0-.22h0m.33.82l-.15-.61-.29.55.44.06m-.33-.88s-.05.02-.05.05h0s0,.05.03.06c.01,0,.02.01.03.02,0,.02-.02.07-.04.11h0s-.49.92-.49.92l-.02.03c-.06.11-.1.2-.21.24-.02,0-.03.02-.03.04,0,.03.02.06.04.07l.41.05h0s.05-.02.05-.05h0s0-.05-.03-.06c-.05-.03-.06-.04,0-.17l.14-.28.49.06.07.3v.03c.02.05.03.11.03.12,0,0,0,.01-.05.02-.02,0-.03.02-.04.04h0s0,.04.01.05c0,0,.02.02.03.02l.46.06s0,0,0,0c.01,0,.02,0,.03-.01.01,0,.02-.02.02-.04,0-.02,0-.05-.02-.06-.09-.07-.12-.17-.15-.29v-.03s-.33-1.24-.33-1.24c0-.02-.02-.04-.04-.04l-.36-.05h0m-.03.78l.19-.36.1.4-.29-.04Z"/><path class="cls-3" d="m364.33,47.07s-.02-.01-.02-.03c0-.01,0-.03.02-.03.09-.03.09-.16.1-.26l.05-.94c0-.1.02-.23-.07-.27-.01,0-.02-.02-.02-.03,0-.01.01-.03.03-.03,0,0,.43.03.43.03,0,0,.01,0,.02,0,0,0,0,.01,0,.02,0,.01,0,.03-.02.03-.09.03-.09.15-.1.25l-.06,1.02.28.04s.04,0,.06,0c.12,0,.23-.04.33-.12,0,0,.01,0,.02,0h0s.02,0,.02.01c0,0,0,.02,0,.02l-.14.3s-.01.02-.02.02c0,0-.93-.06-.93-.06"/><path class="cls-10" d="m364.42,45.52l.43.03h0c-.12.04-.11.22-.12.32l-.06,1.01.31.04s.04,0,.07,0c.13,0,.24-.04.34-.12h0l-.14.3-.93-.06h0c.12-.04.11-.21.12-.32l.05-.87c0-.11.03-.28-.08-.33h0m0-.06s-.05.02-.05.05h0s.01.05.03.06c.06.03.06.13.06.24v.03s-.05.87-.05.87v.03c0,.11-.02.21-.08.23-.02,0-.03.02-.04.05h0s.02.06.05.06l.93.06h0s.04-.01.05-.03l.13-.3s0-.04,0-.05c0-.02-.03-.02-.04-.02h0s0,0,0,0c-.01,0-.02,0-.03,0-.09.07-.2.11-.31.11-.02,0-.04,0-.06,0l-.26-.03.05-.96v-.04c0-.11.02-.21.08-.23.02,0,.04-.02.04-.05,0-.01,0-.03-.01-.04,0-.01-.02-.02-.03-.02l-.43-.03h0"/><path class="cls-3" d="m365.61,47.13s-.03-.01-.03-.03c0-.01,0-.03.02-.03.09-.03.08-.16.08-.26v-.94c0-.1,0-.23-.08-.26-.01,0-.02-.01-.02-.02,0,0,0-.02,0-.02s.01-.01.02-.01h.43s.02.01.02.03c0,.01,0,.03-.02.03-.09.03-.08.17-.08.26v.94c0,.1,0,.23.08.26.01,0,.02.01.02.02,0,.01-.01.03-.03.03h-.43Z"/><path class="cls-10" d="m365.61,45.57h.43c-.11.05-.1.22-.1.33v.88c0,.11-.02.27.1.32h0s-.43,0-.43,0h0c.11-.05.1-.22.1-.32v-.88c0-.11.02-.28-.1-.32h0m0-.06s-.03,0-.04.02c0,0-.01.02-.01.04h0s.01.05.03.06c.07.02.07.12.07.24v.91s0,.03,0,.03c0,.11,0,.21-.07.24-.02,0-.03.03-.03.05h0s.02.06.05.06h.43s0,0,0,0c.03,0,.05-.02.05-.05h0s-.01-.05-.03-.06c-.06-.02-.07-.12-.07-.24v-.9s0-.03,0-.03c0-.11,0-.22.07-.24.02,0,.03-.03.03-.05,0-.03-.02-.06-.05-.06h-.43Z"/><path class="cls-3" d="m366.52,47.15s-.02,0-.02-.01h0s0-.03,0-.03c.06-.11.03-.22,0-.35v-.03s-.23-1.02-.23-1.02c-.02-.09-.04-.14-.08-.14,0,0-.02,0-.03,0,0,0,0,0,0,0,0,0-.02,0-.02-.01,0,0,0-.01,0-.02,0,0,0-.02,0-.02l.3-.21s0,0,.01,0,.01,0,.01,0l1.08.73c.09.06.18.12.28.12.01,0,.02,0,.04,0h0s.02,0,.02.01c0,0,0,.02,0,.02,0,0,0,.02,0,.02l-.38.27s0,0-.01,0c0,0-.02,0-.02-.01,0,0-.01-.03,0-.03.05-.08.04-.08-.07-.16l-.29-.2-.44.31.08.32c.03.12.05.16.1.16,0,0,.02,0,.04,0,0,0,0,0,0,0,0,0,.02,0,.02.01,0,.01,0,.04,0,.04l-.34.24s0,0-.01,0m.06-1l.31-.21-.42-.29.12.51Z"/><path class="cls-10" d="m366.44,45.33l1.05.71c.1.07.2.14.32.14.01,0,.03,0,.04,0h0s-.38.27-.38.27h0c.06-.11.03-.12-.11-.22l-.28-.2-.47.33.08.34c.03.11.05.18.12.18.01,0,.03,0,.05,0h0s-.35.25-.35.25h0c.07-.14.03-.27,0-.41l-.22-1.02c-.02-.08-.03-.16-.11-.16-.01,0-.02,0-.04,0h0s.3-.21.3-.21m.12.86l.37-.26-.51-.35.14.61m-.12-.91s-.02,0-.03,0l-.3.21s-.03.05-.01.07h0s.03.03.04.03c0,0,.01,0,.02,0,0,0,.02,0,.02,0,.03,0,.04.04.05.11h0s.22,1.03.22,1.03v.04c.04.12.06.23,0,.33-.01.02,0,.04,0,.06.01.02.03.03.05.03,0,0,.02,0,.03,0l.34-.24s.02-.02.02-.03c0-.02,0-.03,0-.04h0s-.03-.03-.04-.03c0,0,0,0-.01,0-.01,0-.03,0-.03,0-.03,0-.04-.01-.07-.14l-.08-.3.41-.29.25.18.02.02s.09.06.09.07c0,0,0,.01-.03.05-.01.02,0,.04,0,.06.01.02.03.03.05.03,0,0,.02,0,.02,0l.38-.27s.02-.02.02-.03c0-.01,0-.03,0-.04-.01-.01-.03-.03-.05-.03h0s-.02,0-.04,0c-.1,0-.17-.05-.27-.12l-.03-.02-1.05-.71s-.02,0-.03,0m.16.83l-.09-.4.33.23-.24.17Z"/><path class="cls-3" d="m367.89,46.2s-.01,0-.02,0h0s0-.02,0-.03c.05-.12,0-.18-.07-.28l-.54-.74c-.07-.09-.11-.15-.21-.15-.01,0-.02,0-.03,0,0,0,0,0,0,0,0,0-.02,0-.02-.01,0-.01-.01-.03,0-.04l.27-.2s.01,0,.02,0h0s.01,0,.02.01c.02,0,.03.01.05.02l.05.02,1.22.33-.47-.64c-.07-.09-.11-.15-.21-.15-.01,0-.02,0-.03,0h0s-.02,0-.02-.01c0,0,0-.01,0-.02,0,0,0-.01,0-.02l.32-.24s0,0,.02,0c0,0,.02,0,.02.01,0,0,.01.02,0,.03-.05.11,0,.18.07.28l.76,1.04s0,.02,0,.02c0,0,0,.02-.02.02-.07.02-.13.03-.19.03-.08,0-.15-.01-.24-.04l-1.14-.31.48.66c.07.1.11.16.21.16.01,0,.02,0,.03,0h0s.02,0,.02.01c0,.01,0,.03,0,.04l-.32.25s-.01,0-.02,0h0"/><path class="cls-10" d="m368.21,44.02h0c-.06.13,0,.21.07.31l.76,1.04c-.07.02-.13.03-.18.03-.08,0-.15-.02-.23-.04l-1.21-.33.52.72c.07.1.12.17.23.17.01,0,.02,0,.04,0h0s-.32.25-.32.25h0c.05-.14,0-.21-.07-.32l-.54-.74c-.07-.1-.12-.16-.23-.16-.01,0-.02,0-.04,0h0s.27-.21.27-.21h0s.04.02.06.03l.05.02,1.29.35-.51-.71c-.07-.09-.12-.17-.23-.17-.01,0-.03,0-.04,0h0s.32-.25.32-.25m0-.05s-.02,0-.03,0l-.32.24s-.02.02-.02.04c0,.01,0,.03.01.04,0,.01.03.03.05.03h0s.02,0,.03,0c.08,0,.11.05.18.14l.43.59-1.15-.31-.05-.02s-.03,0-.04-.02c0,0-.02,0-.02-.01,0,0,0,0,0,0-.01,0-.02,0-.03.01l-.27.2s-.03.05-.01.07c.01.01.03.03.05.03h0s.02,0,.03,0c.08,0,.12.05.19.14l.54.74c.08.11.11.16.07.26,0,.02,0,.04,0,.05,0,.01.02.02.04.02,0,0,0,0,.01,0,0,0,.02,0,.03,0l.32-.25s.03-.05.01-.07c-.01-.01-.03-.03-.05-.03h0s-.02,0-.03,0c-.08,0-.11-.04-.19-.14h0s-.43-.61-.43-.61l1.07.3c.1.03.17.05.25.05.06,0,.13-.01.2-.04.02,0,.03-.02.03-.03s0-.03,0-.05l-.76-1.05c-.08-.11-.11-.16-.07-.25,0-.02,0-.04,0-.05-.01-.02-.03-.02-.05-.02"/><path class="cls-3" d="m369.07,45.35s-.01,0-.02-.01h0s0-.02,0-.03c.06-.11.04-.22,0-.35v-.04s-.23-1.02-.23-1.02c-.02-.09-.04-.14-.08-.14,0,0-.02,0-.03,0,0,0,0,0,0,0,0,0-.02,0-.02-.01,0-.01,0-.04,0-.04l.3-.21s0,0,.01,0,.01,0,.02,0l1.07.74c.09.06.18.12.28.12.01,0,.02,0,.04,0h0s.02,0,.02.01c0,.01,0,.04,0,.04l-.39.27s0,0-.01,0c0,0-.02,0-.02-.01,0,0-.01-.03,0-.03.05-.08.04-.08-.07-.16l-.29-.21-.44.31.08.32c.03.12.05.16.1.16.01,0,.03,0,.04,0,0,0,0,0,0,0,0,0,.02,0,.02.01,0,.01,0,.03,0,.04l-.35.24s0,0-.01,0h0m.07-1l.31-.21-.42-.3.11.51Z"/><path class="cls-10" d="m369.01,43.53l1.04.71c.1.07.2.15.32.15.01,0,.03,0,.04,0h0s-.39.27-.39.27h0c.06-.11.03-.12-.1-.22l-.28-.2-.47.33.08.34c.03.11.05.18.12.18.01,0,.03,0,.05,0h0s-.35.24-.35.24h0c.07-.14.03-.27,0-.4l-.22-1.02c-.02-.08-.03-.16-.11-.16-.01,0-.02,0-.04,0h0s.3-.21.3-.21m.12.86l.37-.26-.51-.36.14.61m-.12-.92s-.02,0-.03,0l-.3.21s-.03.05-.01.07h0s.03.03.04.03c0,0,0,0,.01,0,0,0,.02,0,.02,0,.03,0,.04.04.05.11h0s.22,1.03.22,1.03v.04c.04.12.06.22,0,.33-.01.02,0,.04,0,.05,0,.01.02.02.04.03,0,0,0,0,.02,0,0,0,.02,0,.02,0l.35-.24s.03-.05.01-.07c-.01-.01-.03-.03-.05-.03,0,0,0,0,0,0-.01,0-.02,0-.03,0-.03,0-.04-.01-.07-.14l-.07-.3.41-.29.25.18.03.02s.09.06.09.08c0,0,0,.01-.02.05-.01.02-.01.04,0,.06.01.02.03.03.05.03,0,0,.02,0,.02,0l.38-.27s.03-.05.01-.07c0-.02-.03-.03-.05-.03h0s-.02,0-.03,0c-.1,0-.18-.05-.27-.12l-.03-.02-1.04-.71s-.02,0-.03,0m.15.83l-.09-.4.33.24-.24.17Z"/><path class="cls-13" d="m364.34,44.87h-.26c-1.38-.19-1.77-.26-2.53-.44.37-.18.12-.11.79-.13.32,0,1.59-.28,1.59-.28l.08.41.35.44Z"/><path class="cls-13" d="m353.63,45.1s.38.03,1.56-.31c1.07-.31,1.51-.32,1.6-.33.1,0-.47-.19-.8-.36-.56-.28-1.97-.15-1.97-.15,0,0-.21.59-.53,1.01.05.05.14.14.14.14"/><path class="cls-12" d="m352.81,25.03s-.79.55-1.59,1.71c-.8,1.16-1.31,1.94-2.01,3.58-.7,1.64-.71,2.63-.74,3.45-.03.82.18,1.99.18,2.27s.17.37.23.55c.07.18.35.9.42,1.09.07.19.56,1.04,1.05,1.61.49.57,1.1,1.4,1.28,1.92.17.53.11.94.31,1.24.2.3.53.65.53.65,0,0,0,.3.42.23.28.22,1.75,1.21,2.31,1.44.64-.22.95-.22,1.44-.31-.47-.21-1.04-.65-1.32-.89-.28-.25-.26-.41-.58-.43-.31-.02-.24.29-.24.29,0,0-.67-.44-.92-.65-.25-.21-.64-.46-1.05-1.22-.4-.76-.34-1.17-.33-1.36.01-.19-.09-.22-.16-.22s-.15.08-.18.18c-.19-.22-.45-.69-.82-1.18-.37-.48-.92-1.14-1.29-1.84-.37-.69-.67-1.44-.8-2.77-.13-1.33-.03-2.53.48-3.76.51-1.23.85-2.04,1.52-2.9.67-.86,1.87-2.7,1.87-2.7"/><path class="cls-8" d="m350.66,39.47s.07-.21,0-.34c-.07-.13-.29-.26-.29-.37s-.02-.1.01-.15c.04-.06.07-.09.17-.13.02,0,.03-.03.03-.05-.07-.09-.13-.18-.2-.27-.12-.04-.52-.11-.55-.05-.03.07-.11.13-.11.13,0,0-.07-.38-.29-.74-.2-.33-.28-.36-.36-.43.09.24.19.5.23.6.07.19.56,1.04,1.05,1.61.49.57,1.1,1.4,1.28,1.92.15.44.16.66.21.89.18.11.35.23.43.33,0,0-.35-1.15-.79-1.87-.45-.72-.81-1.09-.81-1.09"/><path class="cls-8" d="m348.65,36.04c0,.28.16.37.23.55.02.05.06.15.11.27-.03-.15-.05-.37-.16-.54-.17-.28-.17-.37-.14-.69.03-.32-.08-.85-.16-1.05-.01-.03-.02-.04-.03-.01.05.64.16,1.28.16,1.47"/><path class="cls-34" d="m368.11,36.2c-.02-.09-.02-.19-.02-.29,0-.15-.11-.35-.07-.49.03-.08.19-.22.28-.22.06,0,.06.01.1.05.07.06.11.12.21.17.11.06.08.05.25-.04.25-.13.45-.31.47-.62.01-.15,0-.29.04-.42.02-.09-.01-.35.09-.41.1-.06.18.09.26.13.2.1.19-.25.35-.28.11-.02.14.08.24,0,.08-.07.29-.44.38-.15.03.09-.02.17-.02.26,0,.1.02.16.07.24.05.09.08.16.08.27-.01.11-.07.14-.11.23-.03.05-.04.05,0,.11.04.07.07.02.13.05.07.04.1.14.09.23-.02.18-.15.34-.26.47-.04.05-.17.13-.09.2.08.07.17-.02.21.12.07.21-.11.41-.25.53-.17.15-.46.24-.67.3-.22.07-.49.04-.74.04-.17,0-.4,0-.57-.03-.25-.05-.38-.21-.43-.46"/><path class="cls-24" d="m368.14,36.31c-.01-.11-.04-.28-.02-.39.02-.09.06-.22.11-.31.08-.15.18-.12.32-.12.2,0,.42-.29.53-.46.17-.27.19-.61.32-.88.05-.12.07-.24.19-.18.24.13.18.42.17.63-.01.27-.05.54-.06.81,0,.17-.04.24.15.19.15-.04.32-.05.44.11.08.1.09.21.25.19.09-.02.23-.07.19.1-.03.12-.12.22-.2.29-.22.19-.57.35-.86.35-.36,0-.73-.1-1.07-.22-.11-.04-.31-.04-.4-.1l-.04-.02Z"/><path class="cls-23" d="m365.76,34.25c-.05.1-.05.14-.16.17-.11.03-.19.02-.27.11-.12.13-.15.36-.09.54.07.22.31.28.4.47.09.19.09.39.08.6,0,.19.05.48-.03.65-.09.18-.33-.08-.46.12-.06.09-.03.17.02.26.06.1.07.16.05.29-.03.16-.06.28.08.39.09.08.23.13.34.18.14.07.12.18.19.3.08.12.49.18.41.4-.04.12-.16.04-.26.04-.11,0-.15.06-.16.17-.02.12.03.12.11.2.07.06.11.15.17.21.05.05.12.05.17.08.07.04.08.08.15.13.19.13.35-.26.46-.37.14-.13.21-.23.29-.43.05-.13.09-.29.16-.41.09-.15.29-.28.34-.46.03-.11,0-.3-.01-.41-.01-.13-.01-.23.03-.36.03-.1.09-.17.09-.28,0-.08-.02-.18-.08-.23-.07-.06-.19,0-.26-.04-.14-.07-.17-.42-.39-.3-.07.04-.16.19-.26.12-.1-.08.02-.2.03-.29.02-.16-.1-.25-.14-.38-.02-.08,0-.15.03-.23.03-.09.02-.17.04-.25.03-.19.12-.36.14-.55.01-.11-.06-.19-.12-.26-.08-.1-.07-.2-.07-.33,0-.07.01-.22-.07-.25-.08-.02-.1.1-.13.16-.03.07-.07.19-.16.14-.06-.04-.12-.16-.17-.22-.08-.11-.23-.18-.33-.05-.09.11-.07.27-.13.39"/><path class="cls-38" d="m366.87,38.7s.01-.51-.06-.83c-.19,0-.59-.05-.63-.07-.05-.02-.02-.08.25-.07.27,0,.34-.02.34-.02,0,0-.17-.82-.24-1.04-.07-.21-.06-.34-.06-.34,0,0,.04-.24.07-.04.03.2.12.46.15.58.03.13.05.2.09.07.04-.13.14-.21.11-.1-.03.12-.11.28-.1.39,0,.11.12.5.12.61.11-.03.17-.02.25-.12.08-.1.09,0,.02.08-.07.09-.21.12-.24.16-.03.03.03.4.02.56,0,.17-.1.17-.1.17"/><path class="cls-31" d="m361.54,44.42l.61-.35s-.08-.5.24-.67c.32-.17.57-.17.71.17.57-.33,1-.68,1.26-.9.26-.21.46-.62.6-.99.14-.37.39-.85.39-.85,0,0-.08-.63-.07-.74.02-.11.11-.2.24-.18.13.01.22.06.24.23.23-.28.61-.86.83-1.19.23-.33,1.12-1.35,1.31-1.66.18-.31.44-1.18.6-1.62.15-.44.25-.98.2-1.42-.05-.44-.09-1.16-.18-1.76-.09-.6-.27-.74-.32-.91-.04-.17-.22-.03-.21-.19,0-.16.16-.15.1-.37-.05-.21-.32-.9-.46-1.3s-.64-1.58-.69-1.76c-.05-.19.29-.61.44-.15.15.45.66,1.86.79,2.11.13.24.41.86.49,1.33.09.47.18.58.25.69.06.11.17.15.18.33.01.18-.03.36.04.6.07.23.26.11.31.39.05.28.01.29.02.5,0,.2.21.36.11,1.24-.1.88-.89,2.23-1.42,3.01-.53.78-.88,1.17-.94,1.24-.05.08-.05.34-.25.52-.19.18-.26.12-.4.35-.14.23-.34.51-.63,1.43.45-.47.69-.85.82-1.07.13-.22.43-.65.49-.79.07-.14.12-.42.24-.61.12-.19.25-.04.41-.27.16-.22.05-.71.05-.71l.25-.46.28.8s-.54,1.11-.67,1.23c-.13.12-.22.19-.28.27-.07.08,0,.29-.1.44-.1.15-.28.42-.37.58s-.3.36-.38.51c-.09.15-.25.34-.45.59-.21.24-.34.28-.41.5-.07.22-.07.32-.39.61-.32.29-.41.3-.69.46-.28.17-.51.34-.6.42-.1.08-.38.21-.59.45-.22.24-.27.24-.27.24,0,0-1.08-.12-1.72-.31"/><path class="cls-24" d="m366.2,35.07s.19.17.28.27c.09.1.12.21.06.38-.05.17-.08.36-.07.5.02.14.02.38-.12.49-.14.11-.05.22-.19.23-.15,0-.29-.03-.29-.03l.05-1.19.29-.65Z"/><path class="cls-28" d="m365.57,36.84c.2.05.24.12.42,0,.11-.07.02-.27.13-.43.11-.16-.04-.2-.09-.3-.04-.1.14-.44.19-.61.06-.17.02-.55-.22-.65-.25-.09-.19.3-.52.14-.18-.09-.2-.28-.19-.43-.09.14-.11.33-.06.49.07.22.31.28.4.47.09.19.09.39.08.6,0,.19.05.48-.03.65-.03.06-.07.07-.12.07"/><path class="cls-39" d="m365.5,42.67c-.13,0-.06.11-.09.24-.03.14-.12.09-.27.09s-.13.09-.21.18c-.07.09-.19.17-.28.15s-.13-.05-.13.08-.02.18-.1.17c-.09-.02-.18.04-.24.12-.06.08-.12.15-.22.15s-.18.06-.25.09c-.07.03-.19.02-.25.14s-.07.17-.16.15c-.09-.01-.15-.2-.32-.38-.19.44-.65.29-.73.23-.08-.07-.1-.05-.1-.01.03.05.46.53.46.53l-.11.03c.41.07.75.1.75.1,0,0,.05,0,.27-.24.21-.24.49-.38.59-.45.1-.08.32-.25.6-.42.28-.17.37-.18.69-.46.23-.21.3-.32.34-.45-.06-.01-.16-.04-.26-.04"/><path class="cls-39" d="m366.83,41.23s-.13.12-.15.15c-.04.05-.1.07-.19.17-.09.09-.21.26-.3.36-.09.11-.15.09-.27.05-.12-.05-.06-.21.03-.38.03-.05.05-.1.06-.15-.03.04-.07.07-.1.11.29-.93.49-1.2.64-1.43.11-.18.17-.19.28-.26-.06,0-.09-.06-.15-.01-.08.06-.03.12-.13.2-.1.08-.38.45-.47.68-.09.23-.3.71-.37.92-.08.21-.14.5-.18.64-.04.14.07.21.21.24.03,0,.05.03.07.05,0,0,0,0,0,0,.07-.22.2-.26.41-.5.2-.24.36-.43.45-.58.02-.03.15-.2.17-.24"/><path class="cls-36" d="m369.45,33.73c0-.21.03-.22-.02-.5-.05-.28-.24-.15-.31-.39-.08-.23-.03-.42-.04-.6-.01-.17-.12-.22-.18-.33-.06-.11-.16-.22-.25-.69-.09-.47-.36-1.09-.49-1.33-.11-.2-.48-1.23-.69-1.82-.08-.03-.15-.04-.17-.04-.06,0-.2.1-.26.19.17.43.48,1.17.58,1.47.14.4.4,1.09.46,1.3.06.21-.1.21-.1.37,0,.15.17.02.21.19.04.15.18.27.28.71.11-.02.26-.03.37-.01.12.02.15.09.15.26s.06.26.09.38c.03.12.06.35.06.48s.18.36.19.48c.02.12,0,.39-.06.51-.06.12-.06.33-.11.52-.04.18-.01.38-.01.54s-.06.27-.1.41c-.04.14-.1.38-.16.5-.06.12-.31.51-.56.36-.06-.04-.12-.02-.19.01-.08.23-.16.43-.23.55-.1.17-.4.53-.69.89h.02c.31-.01.28.38.27.54-.02.17-.21.36-.28.44-.07.07-.07.2-.12.33-.02.07-.05.15-.08.21.14-.17.15-.4.2-.47.05-.07.33-.37.75-.98,0,.04,0,.1.01.15.09-.15.2-.32.32-.47l-.04-.11c.52-.8,1.22-2.02,1.31-2.85.1-.88-.1-1.04-.11-1.25"/><path class="cls-39" d="m367.47,39.06c-.07.11-.12.26-.16.38.04-.06.08-.12.1-.16.04-.07.12-.21.21-.33-.05.01-.1.04-.15.11"/><path class="cls-39" d="m367.07,40.39c-.07-.04-.09-.15-.11-.27-.08.12-.16.24-.21.33,0,.14.09.06.22.09.13.03.18-.11.1-.15"/><path class="cls-28" d="m367.1,27.11l-.17-.33-.4-.69-.36-.62-.49-.61-.44-.58-.44-.52-.22-.25c-.04.06-.03.15-.04.24-.03.12-.1.23-.11.37,0,.15.06.21.13.33s.05.26-.05.34c-.11.1-.19.18-.21.33-.01.11,0,.24.09.31.2.15.5.12.66.34.09.11,0,.21-.1.27-.07.05-.15.09-.23.13-.05.03-.13.05-.18.1-.1.12,0,.27.13.31.07.02.13.05.2.08.06.03.13.03.2.04.08.02.21.02.28.08.04.04.06.11.09.15.2.26.56.23.84.24.07,0,.17,0,.22.05.14.12-.06.22-.11.3-.09.16.21.18.31.2.07.01.15.06.22.04.06-.01.1-.05.15-.08.07-.04.14-.05.21-.09h0l-.17-.47Z"/><path class="cls-25" d="m364.65,23.59l.6.8s-.3-.02-.46.04c.18.01.36-.02.59.2.23.22.37.47.47.58.1.1.24.29.24.29,0,0-.53-.07-.81,0,.28,0,.72.05.89.18.17.13.19.29.31.46.12.17.23.42.23.42,0,0-.48-.02-.62-.02s.11.06.23.07c.12.01.28.04.36.05.08.01.15,0,.19.11.04.11.17.41.17.41,0,0,.26.15-.01-.35-.27-.51-.53-.85-.56-.98-.03-.13.1-.12.17-.23.07-.11.03-.26.03-.41s.02-.23.02-.23c0,0-.08.21-.09.39-.01.18-.07.25-.15.25s-.14-.04-.27-.23c-.13-.19-.21-.22-.23-.31-.02-.09.01-.57.01-.57,0,0-.04.53-.12.48-.08-.05-.14-.23-.29-.37-.15-.14-.11-.23-.12-.43-.01-.2,0-.12-.05.06-.05.19-.09.04-.24-.16-.15-.2-.49-.5-.49-.5"/><path class="cls-45" d="m367.19,28.45c.07.23.3.32.44.52.12.18.31.32.45.49.09.12.34.33.25.51-.05.09-.18.1-.23.19-.04.08-.07.24-.07.34,0,.28.27.32.42.49.07.08.08.12.2.15.08.03.19.03.25.1.16.17-.23.27-.06.48.11.13.41.15.47.33.03.1-.08.15-.1.23-.03.11.02.17.09.23.13.12.19.32.14.51-.03.11-.3.31-.19.46.03.05.18.05.23.03.08-.05.08-.16.09-.24.03-.15.08-.29.14-.43.05-.12.13-.23.18-.35.04-.09.03-.19.05-.29.05-.2.19-.33.29-.51.07-.13.16-.41.12-.56-.08-.28-.37.02-.41-.15-.02-.12.13-.27.18-.36.08-.12.13-.25.14-.4,0-.19.02-.39-.05-.54-.04-.09-.06-.17-.16-.17-.11,0-.12.1-.15.19-.05.12-.15.38-.32.34-.15-.03-.05-.24,0-.32.08-.16.16-.29.17-.48,0-.1.01-.18.02-.27.03-.27-.16-.46-.18-.71,0-.09-.05-.61-.23-.4-.05.06-.02.2-.12.22-.11.03-.13-.1-.12-.18.02-.19.08-.36.05-.56-.01-.08-.07-.17-.11-.24-.07-.1-.16-.2-.22-.31-.05-.1-.07-.2-.19-.13-.08.04-.14.13-.25.06-.09-.05-.08-.18-.08-.26,0-.26-.08-.29-.29-.39-.08-.04-.31-.3-.42-.24-.13.08.04.38,0,.51-.03.08-.11.1-.17.14-.08.05-.1.12-.15.2-.15.24-.36.5-.34.8.03.34.14.66.24.98"/><path class="cls-34" d="m368.94,27.54s.06.38-.18.52c-.3.17-.02.47.11.71.13.24.24.53.24.53,0,0,.31-.22.29-.6-.02-.48-.33-.47-.46-1.16"/><path class="cls-34" d="m369.66,31.46s.37-.43.46-.44c.09-.01.14,0,.01.21-.14.22-.21.49-.28.68-.07.18-.19.31-.19.31,0,0,.04-.31,0-.76"/><path class="cls-34" d="m369.46,30.78s.22-.25.52-.76c-.01.33-.03.38-.39.94-.01-.12-.12-.18-.12-.18"/><path class="cls-34" d="m367.68,25.87c.03.21.1.54.26.82.27.46.35.67.34,1-.37-.3-.55-.57-.7-.62-.15-.05.11-.14-.02-.39-.09-.17-.02-.19.07-.21.14-.04,0-.3.05-.6"/><path class="cls-34" d="m369.12,29.72c-.48-.16-.67-.31-.67-.31l-.03-.26s.28.21.62.29c-.25-.33-.37-.83-.55-1.18-.18-.36-.47-.36-.64-.48-.21-.16-.45-.55-.45-.55.11.66-.38.08-.38.08l-.06.31c.04.29.14.57.23.84.07.23.3.32.44.52.12.18.31.32.45.49.09.12.34.33.25.51-.05.09-.18.1-.23.19.13.08.33.2.46.28.22.14.48.36.56.52.08.16.09.18-.19.06-.48-.21-.06-.07-.15.16.04.01.09.03.12.06.16.18-.22.27-.06.48.11.14.41.15.47.33.03.1-.08.15-.1.23-.03.11.02.17.09.23.1.09.16.22.16.36,0,0,.01,0,.02.01.19-1.04-.04-2.48-.36-3.17"/><path class="cls-23" d="m347.04,34.21c-.16.06-.06.53-.06.75s-.14.85.14,1.88c.29,1.03.67,1.56.83,1.84.16.28,1.23,1.69,1.42,1.87.19.18.39.4.57.55.18.15.37.33.47.41.11.08.3.1.37.11.06.01.13-.22-.08-.27-.21-.05-.3-.1-.47-.41-.17-.31-.35-.75-.52-1.06-.16-.31-.24-.64-.28-1.11-.04-.47-.39-1.16-.74-2.01-.36-.85-.59-1.12-.73-1.37-.14-.24-.46-.75-.57-.94-.11-.19-.18-.3-.35-.24"/><path class="cls-7" d="m349.54,25.91c-.19-.08-.54.44-.83.87-.29.43-.84,1.54-1.14,2.7-.3,1.16-.16,2.39-.13,3.08.03.68.24,1.27.57,1.64.33.37.48-.17.28-.14-.2.02-.26-.02-.27-.3-.01-.27.16-1.01.41-1.82.25-.8.53-1.93.83-3.26.3-1.33.59-2.64.28-2.77"/><path class="cls-30" d="m352.51,23.16c-.17-.09-.53.24-1.17.99-.65.75-1.25,2.13-1.54,2.77-.29.64-.58,1.56-.74,1.96-.16.4-.46,1.48-.31,1.28.15-.2.46-.78.68-1.16.22-.38.92-1.28,1.28-1.81.37-.53.97-1.54,1.28-2.19.31-.65.75-1.72.53-1.84"/><path class="cls-42" d="m357.17,21.48c-.07-.09-.42.03-.57.09-.16.06-.37.22-.65.32-.27.1-.65.22-1.39.78-.75.56-.96.94-1.47,1.42-.5.48-1.22,1.34-1.27,1.45-.06.11-.05.28.26.08.3-.2,2.35-1.65,2.97-2.03.62-.38,1.39-.73,1.77-1.26.37-.53.47-.71.36-.85"/><path class="cls-33" d="m352.06,23.83s-.68.88-1.57,2.39c-.89,1.51-1.39,2.72-1.39,2.72l-.03.22s.8-1.7,1.36-2.62c.55-.92,1.64-2.71,1.64-2.71"/><path class="cls-41" d="m350.71,41.34c-.2-.05-.3-.1-.47-.41-.17-.31-.35-.75-.52-1.06-.16-.31-.24-.64-.28-1.11-.04-.47-.39-1.16-.74-2.01-.36-.85-.59-1.12-.73-1.36-.14-.24-.46-.75-.57-.94-.11-.19-.18-.3-.36-.24-.16.06-.06.53-.06.75s-.14.85.14,1.88c.29,1.03.67,1.56.83,1.84.06.1.24.36.46.65t0,0c.25.35.68.64.68.64,0,0-.04-.11-.1-.17-.05-.05-.24-.38-.24-.38l-.14-.15h.09s-.67-1.47-.93-2.28c-.46-1.4-.71-2.7-.71-2.7,0,0,.69,2.63,1.3,3.93.6,1.29,1.17,2.21,1.53,2.65.36.43.63.55.7.7.08.02.15.03.19.04.07.01.13-.22-.07-.28"/><path class="cls-23" d="m356.55,22.63s-1.32.36-2.54,1.24c-1.23.89-1.44,1.03-1.44,1.03,0,0,.63-.54.82-.78.2-.23.64-.64.89-.8.25-.15,1.05-.68,1.05-.68,0,0-.9.48-1.07.6-.17.12-.4.26-.72.57-.05.05-.09.08-.11.09.73-.98,2.02-1.8,2.33-1.9.29-.09.57-.27.71-.38-.14.08-.31.18-.52.26-.27.1-.65.22-1.39.78-.75.56-.96.94-1.46,1.42-.5.49-1.22,1.34-1.28,1.45-.06.11-.05.28.26.08.3-.2,2.35-1.65,2.97-2.03.49-.3,1.09-.59,1.5-.96"/><path class="cls-30" d="m357.52,22.58c0-.14-.98-.09-2.73.91-1.75,1-2.37,2.22-2.51,2.35-.14.13.95-.42,1.85-.78.9-.35,1.64-.88,2.24-1.26.6-.38,1.13-.95,1.15-1.22"/><path class="cls-33" d="m356.47,22.98s-1.15.95-3.45,2.24c1.09-.39,3.18-1.67,3.45-2.24"/><path class="cls-41" d="m353.43,24.53c-.21-.06-.83.54-1.25,1.18-.41.63-.99,1.42-1.16,1.7-.17.28-.52.75-.52,1.09s-.45.59-.3,1.53c.14.94,1.75-2,2.41-2.78.66-.78.86-1.56.93-1.97.07-.41.1-.69-.11-.75"/><path class="cls-42" d="m348.29,34.06c-.2.02-.26-.02-.27-.3-.01-.27.16-1.01.41-1.82.25-.8.53-1.93.83-3.26.29-1.27.56-2.51.32-2.74-.41.65-1.79,3.12-1.86,7.45,0,.12,0,.23,0,.35.08.18.18.33.3.46.33.38.48-.16.28-.14"/><path class="cls-23" d="m348.2,27.74c-.23.5-.47,1.11-.63,1.74-.3,1.16-.16,2.39-.13,3.08.03.68.24,1.27.57,1.64.03.04.07.07.09.09.03-.18-.15-.27-.19-.35-.04-.08-.16-.12-.11-.31.06-.19-.04-.26-.04-.51.06-1.83.25-2.55.36-3.34-.33,1.27-.43,2.73-.43,3s-.03.43-.05.37c-.02-.07-.08-.39-.08-.68s-.06-.67-.06-.81-.13-1.1.15-2.2c.29-1.14.54-1.7.54-1.71"/><path class="cls-23" d="m351.14,27.22c-.05.08-.09.14-.12.19-.17.28-.52.75-.52,1.09s-.45.59-.3,1.53c.06-.01.13-.06.2-.16.23-.31,1.57-2.41,1.61-2.45.04-.05.22-.35.02-.23-.2.12-.12,0-.02-.19.1-.19.65-1.04.88-1.69,0,0-.25.47-.93,1.46-.68,1-.8,1.1-1.01,1.4-.21.3-.19-.22-.02-.44.1-.13.16-.35.2-.5"/><path class="cls-7" d="m349.02,33.49c-.09.22-.09.33-.16.43-.07.09-.07.18.02.23.09.05.12-.05.19-.26.07-.21.31-.62.5-.83.19-.21.82-1.15,1.24-1.76.43-.61.84-1.38,1.08-2.11.24-.74.49-1.66.26-1.87-.23-.2-1.25,1.34-1.66,2-.42.66-.77,1.34-.99,2.03-.22.69-.28,1.65-.48,2.15"/><path class="cls-42" d="m351.7,29c-.12-.09.25-1.01.25-1.01,0,0-.57,1.03-.76.94-.15-.07.37-.83.37-.83,0,0-.66.94-.75.92-.07-.02.09-.3.23-.54-.22.31-.41.62-.55.83-.41.66-.77,1.34-.99,2.03-.22.69-.27,1.65-.48,2.15-.09.22-.09.33-.16.43-.07.09-.07.18.01.23.09.04.12-.05.19-.26.07-.21.31-.62.51-.83.19-.21.81-1.15,1.24-1.76.43-.61.84-1.38,1.08-2.11.08-.22.15-.46.21-.69-.14.26-.34.57-.4.52"/><path class="cls-23" d="m352.14,28.31s-.34.63-.57,1.47c-.23.85-.94,1.57-.94,1.57,0,0,.19-.45.24-.7-.12.4-.26.54-.4.78-.14.23-.31.52-.49,1.06.26-.37.58-.84.83-1.2.43-.61.84-1.38,1.08-2.11.09-.28.18-.58.25-.86"/><path class="cls-23" d="m352.24,34.05c-.18.01-.88.5-1.74,2.08-.86,1.59-.9,2.93-.86,3.18.04.24.17.46.27.53.1.07.17.01.11-.14-.06-.15-.11-.37-.01-.55.1-.18.41-.79.55-1.01.14-.22.81-1.34,1.11-1.86.3-.52.46-.74.59-1.19.13-.45.17-1.04-.01-1.03"/><path class="cls-41" d="m350.55,38.12s.05-.08.09-.14c-.09-.15-.13-.37-.16-.58-.26.2-.48,1.07-.67,1.73.24-1.34.5-1.8.66-1.95,0-.11,0-.22,0-.31-.14.06-.35.31-.52.54-.33.99-.34,1.72-.31,1.9.04.24.17.46.27.53.1.07.17.01.11-.14-.06-.15-.11-.37-.01-.55.1-.18.41-.79.55-1.01"/><path class="cls-23" d="m352.78,35.07c-.1-.11-.46.28-.94,1.19-.47.92-.62,3.09-.57,3.34.05.25.59-1.06.89-1.57.3-.51.45-1.15.55-1.76.1-.62.16-1.09.06-1.2"/><path class="cls-42" d="m352.2,36.36c.16-.58.48-1,.62-1.17,0-.06-.02-.1-.04-.12-.1-.11-.46.28-.94,1.19-.47.92-.62,3.09-.57,3.34.05.22.47-.77.78-1.35.13-.83-.04-1.23.15-1.89"/><path class="cls-23" d="m351.47,33.56c-.14.03-.4.77-.5,1.37-.1.6-.2,2.61-.17,3,.03.39.15,1.79.22,2.04.07.25.23.7.23.89s.02.35-.08.39c-.1.03-.01.14.1.12.11-.02.15-.1.16-.27.01-.18.05-.39.09-.65.03-.26.09-.75.22-1.21.13-.46.2-.87.24-1.18.03-.31.19-1.16.1-2.58-.1-1.42-.41-1.94-.59-1.91"/><path class="cls-41" d="m352.06,35.47c-.1-1.42-.41-1.94-.59-1.91-.14.02-.4.77-.49,1.37-.1.6-.21,2.61-.17,3,.02.29.1,1.16.16,1.68h0c.1.15.28.45.26.25-.02-.2,0-1.19.04-1.74.04-.56.14-2.35.14-2.35.01.66-.01,1.75-.04,3.1-.02.93.09,1.39.15,1.59h0c.03-.26.09-.75.21-1.21.13-.46.21-.87.24-1.18.03-.31.19-1.16.1-2.58"/><path class="cls-17" d="m356.23,47.66c.19-.16.43-.27.54-.23.11.04.03.18-.14.23-.17.04-.37.15-.48.29-.11.13-.17.19-.24.24-.07.05-.16-.02-.05-.12.1-.1.23-.28.38-.4"/><path class="cls-8" d="m355.56,48.38c-.07.06-.16.14-.1.17.05.04.1,0,.14-.05.04-.06.09-.09.06-.12-.03-.04-.09,0-.09,0"/><path class="cls-17" d="m362.29,47.56c-.05-.03-.14.03-.07.1.07.07.55.48.74.6.2.13.26.17.35.16.09-.01.25-.03.19-.1-.07-.07-.19-.11-.43-.23-.24-.12-.67-.45-.78-.53"/><path class="cls-23" d="m366.93,40.52c.14.03.23-.04.13-.16-.1-.13-.13-.17-.11-.39.02-.22-.02-.23-.1-.23-.13,0-.09.13-.08.2.02.14.04.1.02.26-.02.15-.07.28.15.33"/><path class="cls-17" d="m365.3,41.94c-.1.15-.22.18-.32.36-.1.18-.1.33-.01.46.09.13.22.05.24-.15.02-.2.11-.26.17-.38.06-.12.1-.19.07-.28-.03-.09-.09-.08-.15,0"/><path class="cls-29" d="m355.78,44.5s-.62-.28-.62-.33.27-.19.27-.19l-.33-.19s0,.14-.17.14-.36-.08-.44-.21c-.18-.13-.75-.6-.92-.73-.17-.13-.53-.37-.53-.37,0,0-.09.14-.15.14s-.1.01,0,.11c.1.09.66.45.75.53.09.08.02.16-.09.1-.12-.06-.57-.34-.57-.34,0,0,.44.41.61.53.17.12,1.23.76,1.37.84.14.08.38.18.38.18,0,0,.28-.14.45-.2"/><path class="cls-17" d="m366.45,39.71c-.1.15-.7,1.03-.75,1.38-.05.36.09.19.13,0,.03-.19.23-.58.32-.72.09-.14.29-.47.35-.58.06-.11.04-.21-.05-.08"/><path class="cls-17" d="m367.1,38.83c-.04.12-.02.25.06.12.08-.13.11-.26.17-.35.06-.1,0-.15-.07-.07-.06.08-.14.22-.16.31"/><path class="cls-17" d="m355.54,49.26c-.03.1-.12.15-.39.13-.28-.02-.61-.25-.73-.4-.12-.15-.12-.18-.33-.21-.21-.02-.15-.1-.1-.14.05-.04.19-.11.34-.04.16.06.21.08.41.1.2.02.91.17.81.56"/><path class="cls-17" d="m364.04,48.39c.07.08.05.21-.11.29-.16.09-.32.06-.45.18-.11.11-.25.26-.43.33-.2.08-.47.06-.51-.01-.03-.06-.02-.22.1-.31.11-.07.22-.19.36-.24.13-.05.28-.06.45-.12.17-.06.19-.18.3-.2.11-.02.2-.02.29.08"/><path class="cls-17" d="m368.89,34.99c-.03.15-.17.76-.25.95-.09.19.06.22.13.04.07-.18.2-.76.22-.93.02-.17-.07-.25-.1-.06"/><path class="cls-39" d="m368.69,33.71s-.05,0-.05.03c0,.06.03.3.05.42.02.1-.03.25.09.24.12-.01.19-.05.21-.13.02-.07-.05-.13-.12-.26-.07-.13-.1-.25-.13-.34,0-.02-.03.02-.05.03"/><path class="cls-39" d="m355.06,43.5s-.23.21-.5.03c0,.07-.01.31.21.34.21.03.37-.07.3-.37"/><path class="cls-9" d="m363.32,44.09s-.06,0-.1-.03c-.06-.04-.2-.22-.22-.3,0-.04.01-.07.05-.08.03,0,.07.01.08.05,0,.04.12.19.16.21.03.02.04.02.1-.05.03-.03.06-.07.09-.09.04-.03.08-.03.12-.03.02,0,.04,0,.06-.01h0s0,0,.01-.02c.01-.02.03-.05.06-.06.05-.02.1-.02.14-.02.03,0,.07,0,.09,0,.03-.02.08-.07.12-.11.07-.08.15-.17.24-.19,0-.01,0-.02,0-.03,0-.04.03-.07.06-.07.03,0,.07.03.07.07,0,.02,0,.04,0,.06,0,.01,0,.02,0,.03,0,.02-.01.04-.02.05-.01.01-.03.02-.05.01-.05,0-.13.08-.19.15-.05.06-.1.12-.15.14-.05.03-.11.02-.16.02-.03,0-.06,0-.08,0,0,0,0,.01-.02.02-.02.02-.03.05-.06.06-.04.02-.07.02-.09.02-.03,0-.05,0-.07.02-.02.01-.04.04-.06.06-.04.04-.09.11-.17.11"/><path class="cls-9" d="m364.67,43.28c-.06,0-.11-.02-.14-.06-.03-.04-.04-.1,0-.16.02-.03.05-.05.09-.03.03.02.04.06.03.09,0,0,0,.02,0,.02,0,0,.03.02.06.01.02,0,.03-.02.04-.03,0-.04-.01-.07-.09-.12-.05-.04-.1-.08-.12-.14,0-.02,0-.05.02-.07.02-.02.04-.02.06-.02.06.02.1.05.15.08.04.03.08.06.12.07.03.01.06,0,.11-.02.04-.02.08-.04.13-.04.12-.01.13-.02.16-.11,0-.02,0-.03,0-.04.02-.13.05-.19.23-.18.04,0,.06.03.06.07,0,.04-.03.06-.07.06-.09,0-.09,0-.1.07,0,.01,0,.03-.01.05-.04.18-.13.2-.27.21-.03,0-.06.02-.09.03-.05.02-.1.05-.17.04,0,.03,0,.06,0,.09-.02.07-.07.12-.14.13-.01,0-.03,0-.04,0"/><path class="cls-39" d="m365.3,40.17s.05.2.33.08c-.1.17-.21.37-.24.5-.03.11-.06-.28-.09-.58"/><path class="cls-39" d="m365.75,40.13l.38-.54s-.15.64-.38.54"/><path class="cls-40" d="m350.81,41.7c.05.1.25.46.72.83.39.31.84.55,1.04.6.15.03.26-.05.31-.16.05-.13,0-.24-.05-.3-.06-.07-.33-.15-.33-.15,0,0,.2.12.26.19.05.06.07.15.04.22-.04.08-.13.09-.19.08-.18-.03-.65-.3-.96-.53-.46-.33-.61-.6-.68-.69-.07-.08-.08-.11-.1-.13-.01-.02-.08-.01-.05.04"/><path class="cls-40" d="m352.47,43.12s.01.29.41.22c.25.18,1.42,1.02,2.31,1.44.05-.02.14-.05.14-.05,0,0-.83-.4-1.46-.83-.63-.43-.95-.66-.95-.66,0,0-.37.1-.46-.12"/><path class="cls-20" d="m349.87,29.15c-.1,0-.21.39-.24.49-.05.18-.17.34-.26.5-.1.19-.16.4-.22.6-.06.18-.14.34-.17.52-.09-.02-.14-.17-.24-.21-.03.13.1.23.12.35.03.13-.03.28-.05.39-.05.22-.09.44-.13.67-.03.15-.01.3-.03.45-.04.27-.02.56-.09.83-.02.11-.11.29-.09.41.01.08.06.22.1.28.06.1.12.16.25.16.09-.1.08-.21,0-.32-.09-.14-.12-.17-.12-.35.01-.32.04-.67.08-.99.04-.32.07-.64.12-.95.02-.12.05-.27.1-.39.03-.08.1-.13.12-.24.01-.07,0-.14,0-.21.04-.24.12-.51.22-.72.03-.07.08-.12.11-.19.02-.07,0-.16.04-.23.04-.08.1-.09.16-.14.1-.09.09-.13.11-.26.02-.13.01-.37.1-.46"/><path class="cls-40" d="m350.21,39.08s-.28,1.06.5,2.11c-.04-.27-.27-.53-.39-.98-.15-.57-.06-1.09-.06-1.09l-.05-.04Z"/><path class="cls-40" d="m350.74,27.46s-.39.53-1.18,2.08c.29-.29.5-.79.54-.87.04-.08.31-.57.37-.64.06-.07.15-.31.2-.36.05-.05.07-.21.07-.21"/><path class="cls-40" d="m349.37,29.96s-.29.7-.48,1.21c.07-.06.17-.11.17-.21,0-.11.14-.28.14-.4,0-.12.14-.37.16-.41.02-.04,0-.19,0-.19"/><path class="cls-40" d="m348.72,31.76s-.18.51-.24,1.81c.12-.24.15-.34.14-.62-.02-.28,0-.34.03-.59.03-.25.05-.25.09-.34.04-.09-.01-.26-.01-.26"/><path class="cls-24" d="m366.98,27.22s.1.35.44.34c.19.23.34.54.36.65.02.11-.31.15-.25.27.06.12.18.18.25.24.06.07.37.16.48.29.11.13.16.24.15.42,0,.18.01.31.02.4,0,.1-.06.06-.16-.02-.1-.07-.06.03-.25-.21-.18-.23-.61-.45-.73-.67-.11-.21.02-.4.02-.61,0-.17-.13-.27-.23-.36-.1-.1-.08-.21-.1-.31-.07-.26,0-.46,0-.46"/><path class="cls-45" d="m365.5,27.29c0,.06.02.11,0,.18-.03.07-.04.12-.05.2-.02.13-.1.22-.11.35,0,.12.1.23.07.34-.02.06-.09.07-.13.09-.06.03-.12.09-.14.15-.03.07,0,.16.02.22.02.05.03.12.06.18.02.06.05.11.1.16.04.04.13.07.17.13.04.07,0,.15-.06.19-.06.04-.12.01-.19.05-.14.09-.07.29-.04.42.03.12.15.22.23.31.06.07.17.1.26.14.09.04.18.09.27.11.11.03.22.06.33.09.08.02.11.06.18.11.13.11.23.27.37.38.11.09.22.18.32.28.05.05.07.1.09.17.06.16.06.36.16.52.02.03.03.05.05.08.04.07.08.1.13.16.05.06.09.12.11.19.06.22.18.39.31.57.07.1.17.18.26.25.11.08.2.18.27.3.03.05.06.13.14.12.16-.03.18-.34.21-.46.06-.23.03-.71-.33-.57-.11.04-.24.19-.36.06-.1-.11.02-.38.06-.51.03-.09.05-.17.1-.25.04-.06.08-.12.09-.2.01-.14-.03-.25-.18-.25-.13,0-.22.22-.35.18-.12-.04-.09-.22-.09-.32,0-.19.07-.35.11-.53.03-.14.1-.31-.02-.41-.04-.04-.08-.08-.13-.1-.06-.02-.13-.01-.17-.04-.12-.08,0-.25.09-.28.14-.04.24-.16.33-.27.05-.06.05-.1.05-.18,0-.13-.04-.28,0-.4.03-.12.14-.22.1-.36-.04-.14-.2-.12-.33-.12-.3,0-.43.3-.61.48-.08.08-.26.1-.34,0-.09-.11.01-.25.09-.33.07-.07.1-.1.18-.15.22-.14.18-.48.05-.67-.02-.04-.03-.03-.04-.07,0-.02,0-.05-.02-.08-.02-.06-.02-.14-.06-.19-.05-.1-.21-.23-.26-.05-.05.14-.03.26-.11.38-.06.08-.21.26-.27.08-.04-.14.05-.28.03-.42-.02-.15-.1-.19-.22-.22-.05-.01-.11-.04-.16-.08-.13-.1-.21-.24-.38-.28-.14-.03-.25.04-.24.2"/><path class="cls-34" d="m367.49,29.96c.03-.24-.19-.21-.23-.1-.05.12-.08.12-.18.07s-.13-.23-.19-.52c-.06-.29-.13-.49-.34-.58-.21-.08-.52-.46-.53-.61-.01-.15.07-.62-.09-.72-.11-.06-.24-.28-.32-.42-.08.02-.12.09-.11.2,0,.06.02.11,0,.18-.03.07-.05.12-.06.2-.02.13-.1.22-.11.35,0,.11.1.23.07.34-.02.06-.09.07-.14.09-.06.03-.12.08-.14.15-.03.07,0,.16.02.22.02.05.03.12.06.18.02.06.05.11.1.16.04.04.13.08.17.13.04.07,0,.15-.05.19-.06.04-.12.01-.19.05-.14.09-.07.29-.04.42.03.12.15.22.23.31.06.07.17.1.26.14.09.04.18.09.27.11.11.03.22.06.33.09.08.02.11.06.18.11.13.11.23.27.37.38.11.09.22.18.32.28.05.05.07.1.09.17.02.04.02.08.03.12,0,0,.01-.02.02-.03.08-.3-.05-.28-.06-.4-.01-.12-.37-.71-.37-.71,0,0-.04-.08-.15-.13-.12-.05-.25-.1-.25-.1,0,0,.09-.04.25-.01-.13-.23-.32-.71-.36-.78-.05-.07-.15-.06-.27-.13s-.2-.23-.13-.18c.07.05.37.13.37.13,0,0-.05-.12-.07-.25-.02-.13-.11-.49-.11-.49,0,0,.13.17.17.35.05.18.12.31.12.31,0,0,.06-.24.16-.3.1-.06.15.05.07.12-.08.07-.13.2-.18.38.06.31.57,1.2.57,1.2,0,0,.07-.22.13-.48.06-.26.09-.06.09.07s-.14.58-.14.58c0,0,.2.44.18.27-.02-.17.07-.42.11-.55.03-.13.03-.34.07-.58"/><path class="cls-36" d="m367.58,39.86s.12-.3-.15-.61c.15-.23.2-.27.3-.33.1-.06.23-.13.24-.49,0-.36.24-.42.34-.09.11.34-.02.54-.12.79-.1.24-.44.57-.61.73"/><path class="cls-6" d="m368.63,36.16c-.17-.02-.38-.03-.53.08-.2.15-.07.32.04.47.06.09.06.14.05.26-.01.1-.04.18-.07.26-.04.1-.07.15-.14.24-.06.08-.07.16-.09.25-.02.08-.04.2-.01.29.04.12.15.18.22.26.1.1.29.32.08.43-.09.04-.15,0-.22.09-.06.08-.05.18-.03.27.01.09.05.21-.02.29-.07.08-.17.06-.23.18-.06.14.02.19.07.3.06.13-.02.22-.08.33-.06.11-.08.23-.1.34-.04.19-.1.29-.21.44-.04.06-.07.14-.17.13-.06,0-.1-.1-.15-.12-.14-.06-.29.11-.27.26.17.07.35.13.53.02.07-.04.12-.13.21-.15.09-.03.19.03.28.02.11,0,.18-.09.27-.15.13-.08.25-.1.4-.14.12-.03.28-.05.32-.17.03-.08.03-.19,0-.27-.04-.08-.15-.13-.13-.24s.12-.14.19-.2c.1-.07.17-.17.27-.24.15-.1.25-.13.35-.3.06-.11.11-.2.19-.29.08-.1.14-.25.12-.38-.1-.05-.19,0-.29,0-.03-.11.06-.15.12-.21.16-.15.24-.35.37-.53.08-.11.12-.22.16-.34.06-.15.15-.29.22-.45.09-.21.16-.75-.19-.73-.08,0,.02-.96-.38-.99-.15-.01-.26.11-.37.2-.13.11-.18.26-.28.38-.11.13-.35.13-.5.11"/><path class="cls-35" d="m369.06,38.65s.23-.99-.36-1.69c-.59-.7-.45-.59-.28-.65.16-.06.19-.22.6.06.41.28.35.37.35.42s.07-.17.18-.19c.11-.02.15-.18.03-.36-.12-.18-.13-.2-.01-.12.12.08.08.24.12.08.03-.16.09-.32.09-.4s.06.1.02.29c-.04.19.01.27.09.12.08-.14.07-.42.08-.14.01.28.01.37.15.36.14-.01.25.01.32.23.07.22-.15.74-.26.98-.11.24-.25.47-.38.64-.13.17-.14.3-.31.4-.16.1-.51.41-.46-.02"/><path class="cls-35" d="m368.33,37.83s.62.28.37,1.53c-.25,1.26.06.47.14.03.07-.44.14-1.32-.51-1.56"/><path class="cls-23" d="m369.49,38.72c-.03-.1.06-.15.12-.21.04-.04.07-.07.1-.12-.03-.05-.03-.19.14-.58,0,0-.3.4-.44.28,0-.2.15-.71.18-.82.03-.1-.11.18-.2.37-.09.18.01.23-.11.51-.12.28-.19.23-.2.37-.01.14-.02.45-.16.55-.14.1-.22.3-.32.34-.09.05-.12.35-.18.5-.05.15-.18.38-.25.48-.07.1-.12.36-.23.38-.11.02-.22.08-.33.2-.1.12-.14.04-.25.23.05-.04.09-.09.15-.11.09-.03.19.03.28.02.11,0,.18-.09.27-.15.13-.09.25-.1.4-.14.12-.03.28-.05.33-.17.03-.08.03-.19,0-.27-.04-.08-.15-.13-.13-.24.02-.11.12-.14.19-.2.1-.08.17-.17.27-.24.15-.1.25-.13.34-.3.06-.11.11-.2.19-.29.08-.1.14-.25.12-.38-.1-.05-.19,0-.29,0"/><path class="cls-32" d="m367.05,40.55s.06-.06.08-.09c.03-.07.02-.14,0-.21-.01-.04-.04-.09-.04-.13,0-.04.02-.09.06-.06.02.02.02.08.04.11.01.02.03.03.04.05.05.06.1.08.15.12.05.05-.08.23-.1.25-.04.04-.12.21-.21.33-.02.02-.02-.02-.05-.02-.04,0-.18.15-.22.12-.05-.04-.02-.09-.01-.15.01-.07.02-.17.08-.22.04-.03.04-.05.09-.07l.1-.03Z"/><path class="cls-32" d="m366.84,40.98s-.06.1-.07.16c0,.05,0,.1.03.11.02,0-.07.1-.07.1,0,0-.08.11-.23.25-.15.14-.14.18-.21.27-.08.08-.14.17-.2.16-.06-.02-.11-.03-.13-.05-.02-.02-.08-.07.06-.15.14-.09.21-.16.31-.27.1-.1.23-.21.27-.26.04-.05.1-.09.11-.14.02-.05.01-.16.06-.24.05-.08.1-.03.08.06"/><path class="cls-40" d="m352.77,42.51s.22.04.41.21c.19.18-.27-.08-.41-.21"/><path class="cls-29" d="m351.58,40.64c.02.07.08.15.11.22.08.14.15.27.22.42.03.08.08.17.11.24.03.08.08.17.11.26.03.13.09.24.14.36.04.11.03.25.16.28.06.01.18.09.24.06.09-.05,0-.18-.03-.23-.04-.07-.09-.13-.12-.21-.05-.11-.12-.21-.18-.32-.06-.11-.13-.23-.18-.35-.05-.12-.09-.23-.15-.33-.07-.11-.12-.25-.17-.37-.03-.08-.08-.15-.12-.23-.02-.04-.03-.15-.08-.17-.08-.01-.05.09-.05.13,0,.08-.03.16,0,.24"/><path class="cls-36" d="m351.15,26.86s.45-.68,1.07-1.31c.21-.17.19-.15.13-.07-.06.08-.39.57-.47.69-.08.11,0-.15-.14.07-.15.23-.14.09-.23.23-.09.14-.11.35-.35.39"/><line class="cls-46" x1="124.14" y1="24.23" x2="124.14" y2="46.64"/><line class="cls-46" x1="318.44" y1="24.23" x2="318.44" y2="46.64"/><line class="cls-46" x1="399.36" y1="24.23" x2="399.36" y2="46.64"/><rect class="cls-18" x="434.1" y="25.37" width="1.3" height="6.49"/><rect class="cls-18" x="438.99" y="25.37" width="1.29" height="6.49"/><rect class="cls-18" x="427.59" y="25.37" width="2.93" height="6.49"/><rect class="cls-18" x="427.59" y="39" width="2.92" height="6.5"/><polygon class="cls-19" points="430.52 32.18 431.33 34.6 431.05 34.89 431.05 35.96 431.33 36.23 430.52 38.68 427.59 38.68 427.59 32.18 430.52 32.18"/><polygon class="cls-19" points="431.05 20.82 431.05 22.33 431.33 22.6 430.52 25.04 427.59 25.04 427.59 20.82 431.05 20.82"/><polygon class="cls-19" points="435.89 22.33 435.89 20.82 433.61 20.82 433.61 22.33 433.33 22.6 434.15 25.04 435.35 25.04 436.16 22.6 435.89 22.33"/><polygon class="cls-19" points="440.77 22.33 440.77 20.82 438.49 20.82 438.49 22.33 438.21 22.6 439.03 25.04 440.23 25.04 441.04 22.6 440.77 22.33"/><polygon class="cls-19" points="443.33 20.82 443.33 22.33 443.06 22.6 443.87 25.04 446.8 25.04 446.8 20.82 443.33 20.82"/><polygon class="cls-19" points="430.52 45.82 427.59 45.82 427.59 50.04 431.39 50.04 431.39 48.49 430.52 45.82"/><rect class="cls-15" x="430.85" y="25.37" width="2.93" height="6.49"/><rect class="cls-15" x="430.85" y="39" width="2.93" height="6.49"/><polygon class="cls-16" points="430.84 32.18 431.66 34.67 431.33 34.98 431.33 35.88 431.66 36.17 430.84 38.68 433.77 38.68 432.94 36.16 433.29 35.86 433.29 34.96 432.96 34.66 433.77 32.18 430.84 32.18"/><polygon class="cls-16" points="433.77 45.82 432.96 48.49 432.96 50.04 431.66 50.04 431.66 48.49 430.84 45.82 433.77 45.82"/><rect class="cls-15" x="435.73" y="25.37" width="2.93" height="6.49"/><rect class="cls-15" x="435.73" y="39" width="2.93" height="6.49"/><polygon class="cls-16" points="435.73 32.18 436.54 34.67 436.21 34.98 436.21 35.88 436.54 36.17 435.73 38.68 438.65 38.68 437.84 36.18 438.16 35.88 438.16 34.98 437.84 34.67 438.65 32.18 435.73 32.18"/><polygon class="cls-16" points="438.65 45.82 437.84 48.49 437.84 50.04 436.54 50.04 436.54 48.49 435.73 45.82 438.65 45.82"/><rect class="cls-18" x="434.11" y="39.01" width="1.29" height="6.49"/><polygon class="cls-18" points="434.1 38.68 433.29 36.23 433.61 35.95 433.61 34.87 433.29 34.6 434.11 32.18 435.38 32.18 436.21 34.62 435.89 34.89 435.89 35.96 436.21 36.25 435.4 38.68 434.75 38.68 434.1 38.68"/><polygon class="cls-18" points="434.11 45.82 435.4 45.82 436.21 48.49 436.21 50.04 433.29 50.04 433.29 48.49 434.11 45.82"/><rect class="cls-18" x="438.98" y="39" width="1.3" height="6.49"/><polygon class="cls-18" points="438.98 38.68 438.16 36.25 438.49 35.96 438.49 34.89 438.16 34.62 438.99 32.18 440.28 32.18 441.1 34.62 440.78 34.89 440.78 35.96 441.1 36.25 440.28 38.68 439.64 38.68 438.98 38.68"/><polygon class="cls-18" points="438.99 45.82 440.28 45.82 441.16 48.49 441.16 50.04 438.16 50.04 438.16 48.49 438.99 45.82"/><rect class="cls-15" x="440.61" y="25.37" width="2.93" height="6.49"/><rect class="cls-15" x="440.62" y="39" width="2.93" height="6.5"/><polygon class="cls-16" points="440.61 32.18 441.43 34.67 441.1 34.98 441.1 35.88 441.43 36.17 440.61 38.68 443.54 38.68 442.73 36.18 443.05 35.88 443.05 34.98 442.73 34.67 443.54 32.18 440.61 32.18"/><polygon class="cls-16" points="443.54 45.82 442.73 48.49 442.73 50.04 441.43 50.04 441.43 48.49 440.61 45.82 443.54 45.82"/><polygon class="cls-16" points="431.33 20.82 431.33 22.15 431.66 22.44 430.84 25.04 433.77 25.04 432.96 22.44 433.3 22.14 433.3 20.82 431.33 20.82"/><polygon class="cls-16" points="436.21 20.82 436.21 22.15 436.54 22.44 435.73 25.04 438.65 25.04 437.84 22.44 438.18 22.14 438.18 20.82 436.21 20.82"/><polygon class="cls-16" points="441.1 20.82 441.1 22.15 441.43 22.44 440.62 25.04 443.54 25.04 442.73 22.44 443.07 22.14 443.07 20.82 441.1 20.82"/><rect class="cls-18" x="443.87" y="39" width="2.93" height="6.49"/><rect class="cls-18" x="443.87" y="25.37" width="2.93" height="6.49"/><polygon class="cls-19" points="443.88 38.68 443.05 36.25 443.38 35.96 443.38 34.89 443.05 34.62 443.88 32.19 446.79 32.19 446.79 38.68 443.88 38.68"/><polygon class="cls-19" points="443.88 45.82 446.79 45.82 446.79 50.04 443.05 50.04 443.05 48.49 443.88 45.82"/><path class="cls-37" d="m453.25,45.48h-1.41v-6.55h2.79c1.12.01,2.28.37,2.28,1.71,0,.85-.55,1.41-1.36,1.59v.02c1.08.12,1.08.78,1.2,1.69.06.42.12,1.19.38,1.55h-1.55c-.12-.58-.18-1.17-.24-1.76-.04-.36-.13-.86-.59-.88h-1.49v2.64m0-3.73h1.18c.62-.01.98-.32.98-.9s-.36-.83-.98-.83h-1.18v1.73Z"/><path class="cls-37" d="m459.18,43.57c0,.59.08,1.14.78,1.14.47,0,.71-.17.83-.59h1.23c-.12,1.12-1,1.5-2.06,1.5-1.56,0-2.19-.88-2.19-2.4,0-1.37.8-2.42,2.19-2.42.85,0,1.56.29,1.94,1.09.13.25.19.53.23.82.03.28.03.57.03.87h-2.98m1.58-.91c0-.5-.14-.96-.8-.96-.63,0-.76.46-.78.96h1.58Z"/><path class="cls-37" d="m467.46,45.07c0,1.06-.24,2.22-2.23,2.2-1.01,0-2.09-.25-2.11-1.47h1.29c.02.41.38.56.75.56,1.03,0,1-.94.94-1.61h-.02c-.28.44-.76.62-1.28.62-1.23,0-1.87-1.16-1.87-2.27,0-1.16.66-2.33,1.93-2.33.61,0,1,.2,1.21.66h.02v-.53h1.36v4.15m-2.24-.59c.74,0,.88-.76.88-1.35,0-.67-.14-1.43-.88-1.43s-.88.76-.88,1.43c0,.59.13,1.35.88,1.35"/><path class="cls-37" d="m470.05,40.1h-1.45v-1.17h1.45v1.17Zm-.05,5.38h-1.36v-4.55h1.36v4.55Z"/><path class="cls-37" d="m473.41,45.62c-1.49,0-2.38-.98-2.38-2.41s.89-2.41,2.38-2.41,2.38.98,2.38,2.41-.89,2.41-2.38,2.41m0-.91c.84,0,.97-.78.97-1.5s-.13-1.51-.97-1.51-.97.78-.97,1.51.14,1.5.97,1.5"/><path class="cls-37" d="m478.17,41.45l.02.03c.28-.42.71-.69,1.4-.69.45,0,1.33.33,1.5,1,.07.28.09.57.09.72v2.97h-1.36v-2.74c0-.49-.14-1.04-.82-1.04-.43,0-.8.38-.82,1.04v2.74h-1.36v-4.55h1.35v.53"/><path class="cls-37" d="m483.59,43.57c0,.59.08,1.14.78,1.14.47,0,.71-.17.84-.59h1.22c-.12,1.12-1,1.5-2.06,1.5-1.56,0-2.18-.88-2.18-2.4,0-1.37.8-2.42,2.18-2.42.85,0,1.56.29,1.94,1.09.13.25.19.53.23.82.03.28.03.57.03.87h-2.98m1.58-.91c0-.5-.14-.96-.8-.96-.62,0-.76.46-.78.96h1.58Z"/><path class="cls-37" d="m496.06,38.93v4.1c0,1.74-1.25,2.58-2.84,2.58s-2.84-.84-2.84-2.58v-4.1h1.41v3.56c0,1.11.05,2.11,1.43,2.11s1.43-1.01,1.43-2.11v-3.56h1.41"/><path class="cls-37" d="m498.64,41.46h.02c.28-.4.71-.67,1.4-.67.51,0,1.26.36,1.45.86.43-.59.85-.86,1.54-.86.51,0,1.26.36,1.45.86.14.34.14.73.14,1.09v2.74h-1.36v-2.74c0-.49-.14-1.04-.82-1.04-.43,0-.8.38-.82,1.04v2.74h-1.36v-2.74c0-.49-.15-1.04-.82-1.04-.43,0-.8.38-.82,1.04v2.74h-1.36v-4.55h1.35v.53"/><path class="cls-37" d="m505.74,38.93h1.36v2.52h.02c.26-.38.74-.66,1.22-.66,1.41,0,2.13,1.19,2.13,2.41s-.62,2.41-1.96,2.41c-.59,0-1.1-.24-1.4-.78h-.02c0,.22-.02.43-.04.64h-1.36c.02-.3.04-.61.04-.91v-5.64m2.34,5.78c.87,0,.98-.8.98-1.5s-.11-1.51-.98-1.51c-.74,0-.98.88-.98,1.51s.24,1.5.98,1.5"/><path class="cls-37" d="m512.6,40.93l.03.83h.02c.29-.72.87-.9,1.55-.88v1.21h-.59c-.23.02-.53.15-.66.34-.15.25-.17.51-.18.81v2.26h-1.35v-3.65c0-.19-.04-.57-.05-.91h1.24"/><path class="cls-37" d="m516.43,40.1h-1.45v-1.17h1.45v1.17Zm-.04,5.38h-1.36v-4.55h1.36v4.55Z"/><path class="cls-37" d="m517.59,42.22c0-.57.25-.93.62-1.13.37-.22.85-.29,1.34-.29.92,0,1.94.33,1.94,1.7v2.49c0,.22.04.36.06.5h-1.22c-.03-.21-.05-.42-.05-.61h-.02c-.31.53-.78.74-1.39.74-.85,0-1.49-.49-1.49-1.38,0-.32.15-1.09.97-1.44.54-.24,1.23-.26,1.78-.24v-.43c0-.19-.14-.56-.62-.56s-.62.45-.61.65h-1.31m1.1,1.84c0,.38.28.65.66.65.75,0,.78-.83.78-1.37-.47,0-1.44-.02-1.44.71"/></svg>